<?xml version="1.0" standalone="no"?>
<!DOCTYPE svg PUBLIC "-//W3C//DTD SVG 1.1//EN" "http://www.w3.org/Graphics/SVG/1.1/DTD/svg11.dtd" >
<svg xmlns="http://www.w3.org/2000/svg">
<metadata>
This is a custom SVG webfont generated by Font Squirrel.
Copyright   : Version 10 created on 061194Copr1994 by Dutch Type LibraryURW
Foundry     : Version   created on   Copr by Dutch Type LibraryURW
</metadata>
<defs>
<font id="DTLNobelTLight" horiz-adv-x="1433" >
<font-face units-per-em="2048" ascent="1638" descent="-410" />
<missing-glyph horiz-adv-x="409" />
<glyph unicode=" "  horiz-adv-x="409" />
<glyph unicode="&#x09;" horiz-adv-x="409" />
<glyph unicode="&#xa0;" horiz-adv-x="409" />
<glyph unicode="!" horiz-adv-x="573" d="M213 0v168h127v-168h-127zM223 977v633h127v-631l-37 -573h-57z" />
<glyph unicode="&#x22;" horiz-adv-x="886" d="M145 1612h166l-39 -506h-88zM575 1612h166l-39 -506h-88z" />
<glyph unicode="#" horiz-adv-x="1533" d="M29 449v110h340l161 438h-358v119h406l180 494h141l-186 -500h370l187 500h141l-186 -500h309v-113h-350l-162 -438h369v-110h-410l-166 -447l-139 -2l164 449h-371l-166 -447l-139 -2l164 449h-299zM510 559h371l161 438h-370z" />
<glyph unicode="$" horiz-adv-x="1118" d="M78 193l88 67q53 -57 81.5 -82.5t96.5 -56.5t150 -33v676l-132 78q-129 72 -196.5 168t-67.5 239q0 168 110.5 273.5t285.5 113.5v113h71v-113q229 -8 334 -182l-88 -55q-61 78 -117.5 105.5t-128.5 31.5v-659l137 -84q250 -135 250 -390q0 -166 -98 -283.5t-289 -133.5 v-160h-71v158q-264 0 -416 209zM223 1264q0 -61 17.5 -113.5t36 -81.5t56.5 -59.5t51 -38.5t48 -27l62 -39v631q-106 -8 -188.5 -77.5t-82.5 -194.5zM565 90q106 12 183 89t77 202q0 96 -49 176t-123 121l-88 57v-645z" />
<glyph unicode="&#x26;" horiz-adv-x="1421" d="M182 375q0 195 215 383l111 96l-123 125q-59 59 -92 143t-33 158q0 147 111.5 248.5t267.5 101.5q154 0 251 -103.5t97 -232.5q0 -100 -49 -179t-154 -171l-120 -106l432 -482l110 156l90 -72q-31 -49 -125 -168l250 -272h-139l-178 197q-109 -111 -204 -168.5 t-232 -57.5q-240 0 -363 119t-123 285zM307 385q0 -139 108.5 -225t252.5 -86q86 0 186 62.5t170 142.5l-440 491l-105 -96q-172 -146 -172 -289zM379 1284q0 -78 23.5 -131t99.5 -129l94 -94l98 88q172 152 172 274q0 106 -66.5 173t-174.5 67q-96 0 -171 -73t-75 -175z " />
<glyph unicode="'" horiz-adv-x="456" d="M145 1612h166l-39 -506h-88z" />
<glyph unicode="(" horiz-adv-x="716" d="M193 657q0 342 116.5 580t337.5 434v-119q-319 -352 -319 -893q0 -178 24.5 -321t76.5 -258t90 -176.5t106 -155.5q18 -25 26 -37v-119q-458 414 -458 1065z" />
<glyph unicode=")" horiz-adv-x="716" d="M66 -307q78 102 118.5 167.5t97 186.5t82 271.5t25.5 340.5q0 541 -319 893v119q221 -197 337.5 -434.5t116.5 -579.5q0 -612 -458 -1065v101z" />
<glyph unicode="*" horiz-adv-x="854" d="M78 1257l35 97l293 -127l-21 321h104l-18 -323l287 106l30 -100l-296 -78l210 -283l-88 -57l-178 305l-190 -289l-88 64l227 260z" />
<glyph unicode="+" horiz-adv-x="1124" d="M84 553v102h420v500h119v-500h419v-102h-419v-551h-119v551h-420z" />
<glyph unicode="," horiz-adv-x="505" d="M145 -274q51 156 52 278v164h127v-88q0 -143 -21.5 -210t-77.5 -144h-80z" />
<glyph unicode="-" horiz-adv-x="645" d="M100 459v110h445v-110h-445z" />
<glyph unicode="." horiz-adv-x="466" d="M170 0v168h127v-168h-127z" />
<glyph unicode="/" horiz-adv-x="995" d="M154 0l573 1608h115l-576 -1608h-112z" />
<glyph unicode="0" d="M154 813q0 399 152.5 605t410.5 206q289 0 426 -202.5t137 -608t-146.5 -619.5t-416.5 -214q-281 0 -422 220t-141 613zM272 813q0 -180 36 -320.5t87 -215t117 -123t115 -61.5t90 -13q49 0 100 14.5t115.5 61.5t113 122.5t82 214t33.5 320.5q0 178 -31.5 313.5 t-76.5 208t-108.5 117.5t-116 57.5t-109.5 12.5q-49 0 -98.5 -12.5t-115 -57.5t-114.5 -117.5t-84 -208t-35 -313.5z" />
<glyph unicode="1" d="M352 1221v114q86 0 150.5 22.5t110.5 69t71 83t57 100.5h84v-1610h-123v1360q-45 -59 -137 -99t-213 -40z" />
<glyph unicode="2" d="M231 1184q0 195 123 316.5t344 121.5q219 0 352.5 -101.5t133.5 -332.5q0 -229 -252 -539l-438 -534h770v-115h-996l504 629q2 2 22 25l36 45l46 61t51.5 73.5t47 82t42 91.5t29 93t11.5 94q0 174 -99.5 251t-255.5 77q-162 0 -261 -87t-99 -251h-111z" />
<glyph unicode="3" d="M217 158l76 73q84 -88 166 -119.5t194 -31.5q168 0 282 87t114 257q0 57 -18.5 113.5t-58.5 112t-121 89t-192 33.5h-120v111h123q152 0 241.5 104.5t89.5 245.5q0 293 -325 293q-104 0 -199.5 -49.5t-149.5 -137.5l-73 64q61 102 177 165.5t247 63.5q227 0 335.5 -112.5 t108.5 -284.5q0 -143 -86 -265t-199 -134q139 -8 239.5 -122t100.5 -288q0 -205 -143 -324.5t-373 -119.5q-270 0 -436 176z" />
<glyph unicode="4" d="M168 426v113l772 1071h64v-1071h237v-117h-237v-422h-115v426h-721zM285 539h604v837z" />
<glyph unicode="5" d="M236 178l90 74q158 -170 374 -170q117 0 203 44t130 115.5t63.5 142.5t19.5 142q0 182 -104.5 296t-263.5 114q-215 0 -363 -176l-66 37l27 815h795v-105h-699l-18 -581q70 61 175.5 87.5t156.5 26.5q197 0 337 -130t140 -382q0 -102 -28.5 -194t-89 -173t-172.5 -130 t-259 -49q-131 0 -256.5 57t-191.5 139z" />
<glyph unicode="6" d="M227 586q0 575 445 1028h145q-154 -125 -285 -347.5t-159 -400.5q137 176 370 176q215 0 350.5 -144t135.5 -351q0 -268 -138.5 -416.5t-367.5 -148.5q-231 0 -363.5 166t-132.5 438zM348 537q0 -186 106.5 -322.5t272.5 -136.5q182 0 280.5 129t98.5 336 q0 186 -118 292.5t-255 106.5q-55 0 -113.5 -17.5t-123 -58.5t-106.5 -126.5t-42 -202.5z" />
<glyph unicode="7" d="M240 1495v115h1028l-756 -1610h-133l723 1495h-862z" />
<glyph unicode="8" d="M221 455q0 145 79 258.5t187 146.5q-2 0 -25.5 12.5t-30.5 16.5t-30.5 19.5t-34 24.5t-30 28.5t-29.5 37.5l-24 45q-14 27 -21.5 55.5t-12.5 64.5t-5 77q0 154 135 272.5t358 118.5q131 0 228.5 -35.5t149.5 -95t75.5 -124t23.5 -136.5q0 -86 -21.5 -152.5t-63.5 -110.5 t-76.5 -68.5t-85.5 -51.5q119 -33 198.5 -134t79.5 -269q0 -207 -144.5 -340t-367.5 -133q-221 0 -366.5 134t-145.5 339zM342 455q0 -152 111.5 -263.5t279.5 -111.5q180 0 285.5 114.5t105.5 260.5q0 41 -9 83t-35.5 93t-67.5 90t-114 65.5t-165 26.5q-106 0 -186 -32.5 t-123 -87t-62.5 -113.5t-19.5 -125zM365 1241q0 -322 374 -321q164 0 260.5 80.5t96.5 240.5q0 135 -101.5 213t-255.5 78q-156 0 -265 -79t-109 -212z" />
<glyph unicode="9" d="M213 1087q0 264 151.5 400.5t366.5 136.5q236 0 358.5 -167t122.5 -437q0 -137 -38.5 -275.5t-90 -240t-135.5 -213t-139 -172.5l-137 -146l-80 68q174 160 309 366.5t174 346.5q-152 -190 -383 -191q-205 0 -342 150.5t-137 373.5zM334 1092q0 -211 114.5 -317.5 t256.5 -106.5q49 0 107 18.5t126 60t113 131t45 212.5q0 180 -97.5 308t-273.5 128q-184 0 -287.5 -113.5t-103.5 -320.5z" />
<glyph unicode=":" horiz-adv-x="512" d="M193 0v168h126v-168h-126zM193 791v167h126v-167h-126z" />
<glyph unicode=";" horiz-adv-x="512" d="M141 -274q51 156 52 278v164h126v-88q0 -143 -21.5 -210t-76.5 -144h-80zM193 791v167h126v-167h-126z" />
<glyph unicode="&#x3c;" horiz-adv-x="1124" d="M172 559v119l754 520v-160l-654 -420l656 -425v-160z" />
<glyph unicode="=" horiz-adv-x="1124" d="M127 246v121h870v-121h-870zM127 682v121h870v-121h-870z" />
<glyph unicode="&#x3e;" horiz-adv-x="1124" d="M197 1036v160l755 -526v-119l-753 -520v159l653 420z" />
<glyph unicode="?" horiz-adv-x="907" d="M61 1358q20 104 119 179t254 75q57 0 113.5 -13.5t116 -46t96.5 -99.5t37 -161q0 -170 -166 -397q-166 -217 -166 -492h-125q0 197 78 375q23 51 88 143.5t110.5 182.5t45.5 182q0 115 -71 165t-177 50q-70 0 -139.5 -39t-100.5 -137zM340 0v168h127v-168h-127z" />
<glyph unicode="@" horiz-adv-x="1978" d="M131 739.5q0 368.5 252 629.5t606 261q391 0 624.5 -225t233.5 -623q0 -102 -32.5 -199.5t-67.5 -152.5t-90 -125h-397v92q-145 -115 -355 -114q-143 0 -237.5 66.5t-94.5 225.5q0 129 104.5 223.5t326.5 94.5q164 0 256 -19v99q0 123 -76 170t-226 47q-154 0 -268 -74 l-47 96q160 78 361 78q178 0 272 -63.5t94 -214.5v-592h221q139 195 140 362q0 334 -197 535t-545 201q-307 0 -526 -229.5t-219 -549.5q0 -322 218 -550t527 -228h152v-113h-152q-354 0 -606 261.5t-252 630zM674 567q0 -90 66.5 -141t185.5 -51q80 0 170 34.5t151 86.5 v288q-111 18 -280 19q-135 0 -214 -57.5t-79 -178.5z" />
<glyph unicode="A" horiz-adv-x="1378" d="M92 0l592 1683l602 -1683h-125l-184 543h-576l-184 -543h-125zM436 645h496l-256 715z" />
<glyph unicode="B" horiz-adv-x="1396" d="M260 0v1610h371q229 0 356 -114t127 -290q0 -147 -64.5 -248.5t-170.5 -150.5q133 -12 229 -119.5t96 -286.5q0 -168 -127 -284.5t-366 -116.5h-451zM383 106h301q193 0 293 82t100 209q0 338 -420 338h-274v-629zM383 842h248q180 0 270 98t90 262q0 301 -403 301h-205 v-661z" />
<glyph unicode="C" horiz-adv-x="1591" d="M131 807q0 334 230.5 574.5t570.5 240.5q324 0 516 -166l-82 -92q-211 150 -432 149q-270 0 -470 -208.5t-200 -497.5q0 -305 194.5 -513t487.5 -208q276 0 500 205l78 -86q-111 -125 -269.5 -178.5t-310.5 -53.5q-354 0 -583.5 225.5t-229.5 608.5z" />
<glyph unicode="D" horiz-adv-x="1638" d="M260 0v1610h387q383 0 621.5 -211t238.5 -627q0 -346 -241.5 -559t-591.5 -213h-414zM383 106h252q326 0 536.5 188.5t210.5 477.5q0 111 -18 208t-71.5 196.5t-137.5 169t-224 113.5t-325 44h-223v-1397z" />
<glyph unicode="E" horiz-adv-x="1181" d="M260 0v1610h807v-107h-684v-622h657v-107h-657v-668h737v-106h-860z" />
<glyph unicode="F" horiz-adv-x="1067" d="M260 0v1610h807v-107h-684v-624h657v-107h-657v-772h-123z" />
<glyph unicode="G" horiz-adv-x="1888" d="M131 807q0 336 233.5 575.5t571.5 239.5q371 0 569 -184l-84 -92q-106 92 -217.5 129.5t-267.5 37.5q-272 0 -471 -207.5t-199 -498.5q0 -217 99.5 -386t252 -254t324.5 -85q135 0 260 49t234.5 163t156.5 277h-510v115h660q-35 -309 -249 -511t-550 -202 q-356 0 -584.5 226.5t-228.5 607.5z" />
<glyph unicode="H" horiz-adv-x="1718" d="M260 0v1610h123v-731h950v731h123v-1610h-123v772h-950v-772h-123z" />
<glyph unicode="I" horiz-adv-x="643" d="M260 0v1610h123v-1610h-123z" />
<glyph unicode="J" horiz-adv-x="688" d="M31 -10v104q59 0 103 9.5t96.5 37t81 94t28.5 168.5v1209h123v-1176q0 -242 -113.5 -344t-318.5 -102z" />
<glyph unicode="K" horiz-adv-x="1347" d="M260 0v1610h123v-699l735 699h150l-750 -717l830 -893h-174l-791 850v-850h-123z" />
<glyph unicode="L" horiz-adv-x="1054" d="M260 0v1610h123v-1504h618v-106h-741z" />
<glyph unicode="M" horiz-adv-x="1994" d="M260 0v1671l748 -940l727 938v-1669h-123v1327l-608 -792l-621 792v-1327h-123z" />
<glyph unicode="N" horiz-adv-x="1742" d="M260 0v1681l1100 -1394v1351h123v-1701l-1100 1394v-1331h-123z" />
<glyph unicode="O" horiz-adv-x="1880" d="M131 799q0 350 218 586.5t591 236.5q371 0 590 -236.5t219 -586.5q0 -352 -219 -589t-590 -237q-254 0 -440.5 113t-277.5 297.5t-91 415.5zM264 805q0 -317 195.5 -520t480.5 -203t480.5 196.5t195.5 520.5q0 326 -194.5 518t-481.5 192q-289 0 -482.5 -189t-193.5 -515 z" />
<glyph unicode="P" horiz-adv-x="1183" d="M260 0v1610h402q233 0 370 -119t137 -340q0 -182 -137 -322.5t-405 -140.5h-244v-688h-123zM383 795h240q197 0 312.5 102t115.5 252q0 45 -8.5 87t-33 93t-65.5 88t-113.5 61.5t-168.5 24.5h-279v-708z" />
<glyph unicode="Q" horiz-adv-x="1880" d="M131 799q0 350 218 586.5t591 236.5q371 0 590 -236.5t219 -586.5q0 -199 -72.5 -367t-208.5 -280q119 -80 240 -95l-49 -88q-145 25 -277 121q-190 -117 -442 -117q-254 0 -440.5 113t-277.5 297.5t-91 415.5zM264 805q0 -317 195.5 -520t480.5 -203q188 0 344 90 q-68 63 -110 133l75 62q51 -70 121 -136q246 203 246 568q0 326 -194.5 518t-481.5 192q-289 0 -482.5 -189t-193.5 -515z" />
<glyph unicode="R" horiz-adv-x="1253" d="M260 0v1610h404q104 0 190 -23.5t159.5 -75t114.5 -144.5t41 -220q0 -49 -13 -103.5t-53 -120t-99.5 -116.5t-164 -85t-237.5 -34l615 -688h-168l-666 770v-770h-123zM383 795h221q225 0 336 108.5t111 251.5q0 31 -7.5 69t-32 90t-64.5 92t-113.5 68.5t-169.5 28.5h-281 v-708z" />
<glyph unicode="S" horiz-adv-x="1118" d="M78 193l88 67q51 -55 86 -84t107.5 -58.5t158.5 -29.5q115 0 211 80t96 213q0 96 -49 176t-123 121l-291 164q-129 72 -196.5 168t-67.5 239q0 174 122 280.5t304 106.5q266 0 375 -182l-88 -55q-66 84 -134.5 110.5t-152.5 26.5q-111 0 -206 -69.5t-95 -202.5 q0 -61 17.5 -113.5t36 -81.5t56.5 -59.5t51 -38.5t48 -27l270 -151q250 -135 250 -390q0 -176 -118.5 -297.5t-335.5 -121.5q-268 0 -420 209z" />
<glyph unicode="T" horiz-adv-x="1028" d="M0 1503v107h1028v-107h-453v-1503h-122v1503h-453z" />
<glyph unicode="U" horiz-adv-x="1693" d="M223 643v969h123v-889q0 -301 136 -463t372 -162q233 0 363.5 161t130.5 464v889h122v-969q0 -172 -63.5 -318.5t-206.5 -245.5t-346 -99q-303 0 -467 191t-164 472z" />
<glyph unicode="V" horiz-adv-x="1261" d="M12 1610h133l471 -1370l514 1370h132l-656 -1725z" />
<glyph unicode="W" horiz-adv-x="2007" d="M47 1610h133l367 -1315l469 1423l442 -1419l365 1311h137l-496 -1737l-454 1460l-461 -1458z" />
<glyph unicode="X" horiz-adv-x="1185" d="M0 0l518 829l-489 779h149l414 -660l414 662h139l-483 -772l524 -838h-146l-452 719l-449 -719h-139z" />
<glyph unicode="Y" horiz-adv-x="1187" d="M6 1608h139l455 -727l447 729h133l-525 -848v-762h-123v760z" />
<glyph unicode="Z" horiz-adv-x="1351" d="M102 0l996 1503h-938v107h1149l-1002 -1504h993v-106h-1198z" />
<glyph unicode="[" horiz-adv-x="847" d="M238 -383v1993h473v-94h-351v-1805h357v-94h-479z" />
<glyph unicode="\" horiz-adv-x="995" d="M154 1608h114l574 -1608h-113z" />
<glyph unicode="]" horiz-adv-x="847" d="M131 -289h356v1805h-350v94h473v-1993h-479v94z" />
<glyph unicode="^" d="M98 803l568 821h108l563 -819h-118l-500 698l-502 -700h-119z" />
<glyph unicode="_" horiz-adv-x="1118" d="M0 -168h1118v-111h-1118v111z" />
<glyph unicode="`" horiz-adv-x="1024" d="M406 1378h114l135 -268h-114z" />
<glyph unicode="a" horiz-adv-x="1105" d="M98 270q0 129 104.5 223.5t325.5 94.5q164 0 256 -19v99q0 123 -75.5 170t-225.5 47q-154 0 -268 -74l-47 96q160 78 344 78q383 0 383 -278v-707h-111v92q-145 -115 -354 -115q-143 0 -237.5 66.5t-94.5 226.5zM211 260q0 -90 66.5 -141t185.5 -51q80 0 170 34.5 t151 85.5v289q-111 18 -280 19q-135 0 -214 -57.5t-79 -178.5z" />
<glyph unicode="b" horiz-adv-x="1247" d="M225 0v1614h109v-823q39 76 133 133t238 57q199 0 319.5 -134t120.5 -384q0 -195 -122 -340.5t-323 -145.5q-137 0 -231 54.5t-135 128.5v-160h-109zM340 465q0 -63 19.5 -128t59.5 -124t112.5 -97t166.5 -38q145 0 235.5 109.5t90.5 289.5q0 178 -87 292t-249 114 q-170 0 -259 -120t-89 -298z" />
<glyph unicode="c" horiz-adv-x="1032" d="M102 487q0 221 129 359.5t347 138.5q102 0 196 -39t154 -119l-74 -79q-117 133 -301 133q-145 0 -237.5 -108.5t-92.5 -293.5q0 -176 104.5 -287.5t243.5 -111.5q193 0 320 141l61 -82q-80 -94 -169 -128t-208 -34q-207 0 -340 141.5t-133 368.5z" />
<glyph unicode="d" horiz-adv-x="1247" d="M102 500q0 195 122 340t323 145q137 0 231 -54t135 -128v811h109v-1614h-109v172q-39 -76 -133 -133t-237 -57q-199 0 -320 134t-121 384zM223 485q0 -178 87 -291.5t249 -113.5q170 0 259 119.5t89 298.5q0 63 -19.5 127.5t-59.5 124t-112.5 97.5t-166.5 38 q-145 0 -235.5 -110t-90.5 -290z" />
<glyph unicode="e" horiz-adv-x="1103" d="M102 481q0 244 142.5 374t337.5 130q203 0 319.5 -121t116.5 -381h-797q4 -106 43 -189t97.5 -128t117 -66.5t111.5 -21.5q195 0 344 164l70 -92q-98 -90 -190.5 -131.5t-223.5 -41.5q-193 0 -340.5 129t-147.5 375zM227 588h668q-6 129 -95 214t-216 85 q-125 0 -228.5 -74.5t-128.5 -224.5z" />
<glyph unicode="f" horiz-adv-x="595" d="M66 862v96h159v400q0 74 16.5 123t40 75.5t69.5 40t82 15.5t102 2v-92q-47 0 -65.5 -1t-48.5 -5.5t-40 -15.5t-23.5 -31.5t-16.5 -51.5t-3 -76v-383h194v-96h-194v-862h-113v862h-159z" />
<glyph unicode="g" horiz-adv-x="1228" d="M102 500q0 195 122 340t323 145q137 0 231 -54t135 -128v155h109v-929q0 -127 -40 -217.5t-109.5 -136.5t-145.5 -65.5t-166 -19.5q-254 0 -395 129l59 82q49 -51 147.5 -85.5t172.5 -34.5q172 0 270 78.5t98 238.5v174q-39 -76 -133 -133t-237 -57q-199 0 -320 134 t-121 384zM223 485q0 -178 87 -291.5t249 -113.5q170 0 259 119.5t89 298.5q0 63 -19.5 127.5t-59.5 124t-112.5 97.5t-166.5 38q-145 0 -235.5 -110t-90.5 -290z" />
<glyph unicode="h" horiz-adv-x="1193" d="M225 0v1612h111v-795q113 164 305 164q43 0 90 -10t109.5 -41t102.5 -104.5t40 -182.5v-643h-111v563q0 313 -235 314q-143 0 -223 -92.5t-80 -239.5v-545h-109z" />
<glyph unicode="i" horiz-adv-x="561" d="M225 0v958h111v-958h-111zM225 1184v239h111v-239h-111z" />
<glyph unicode="j" horiz-adv-x="552" d="M-8 -242q10 -2 32.5 0t49 2t55.5 14.5t52.5 36t39 65.5t15.5 106v976h110v-1001q0 -131 -82 -215t-237 -84q-14 0 -35 4v96zM236 1184v239h110v-239h-110z" />
<glyph unicode="k" horiz-adv-x="956" d="M225 0v1612h111v-1084l432 430h147l-376 -378l417 -580h-147l-358 498l-117 -117v-381h-109z" />
<glyph unicode="l" horiz-adv-x="561" d="M225 0v1610h111v-1610h-111z" />
<glyph unicode="m" horiz-adv-x="1843" d="M225 0v958h111v-139q63 94 141 128t185 34q84 0 172 -48t124 -138q43 94 133.5 140t198.5 46q147 0 244.5 -85t97.5 -239v-657h-110v610q0 266 -267 267q-135 0 -204.5 -96.5t-69.5 -213.5v-567h-109v590q0 287 -245 287q-135 0 -214 -93.5t-79 -230.5v-553h-109z" />
<glyph unicode="n" horiz-adv-x="1193" d="M225 0v958h111v-139q63 90 145 126t152 36q57 0 113.5 -15.5t112.5 -49t90 -100t34 -159.5v-657h-111v590q0 287 -243 287q-125 0 -210 -87.5t-85 -222.5v-567h-109z" />
<glyph unicode="o" horiz-adv-x="1191" d="M102 483q0 209 132.5 355.5t361.5 146.5t361.5 -146.5t132.5 -355.5q0 -242 -149.5 -374t-344.5 -132q-199 0 -346.5 132t-147.5 374zM217 483q0 -186 104.5 -298.5t278.5 -112.5q166 0 270.5 112.5t104.5 298.5q0 199 -109.5 303.5t-267.5 104.5q-160 0 -270.5 -104.5 t-110.5 -303.5z" />
<glyph unicode="p" horiz-adv-x="1247" d="M225 -410v1368h109v-167q39 76 133 133t238 57q199 0 319.5 -134t120.5 -384q0 -195 -122 -340.5t-323 -145.5q-137 0 -231 54.5t-135 128.5v-570h-109zM340 465q0 -63 19.5 -128t59.5 -124t112.5 -97t166.5 -38q145 0 235.5 109.5t90.5 289.5q0 178 -87 292t-249 114 q-170 0 -259 -120t-89 -298z" />
<glyph unicode="q" horiz-adv-x="1228" d="M102 500q0 195 122 340t323 145q137 0 231 -54t135 -128v155h109v-1368h-109v582q-39 -76 -133 -133t-237 -57q-199 0 -320 134t-121 384zM223 485q0 -178 87 -291.5t249 -113.5q170 0 259 119.5t89 298.5q0 63 -19.5 127.5t-59.5 124t-112.5 97.5t-166.5 38 q-145 0 -235.5 -110t-90.5 -290z" />
<glyph unicode="r" horiz-adv-x="808" d="M225 0v958h111v-153q123 176 289 176q109 0 209 -68l-58 -106q-61 61 -164 61q-106 0 -191 -85t-85 -183v-600h-111z" />
<glyph unicode="s" horiz-adv-x="876" d="M145 55l41 99q125 -82 254 -82q80 0 144.5 37.5t64.5 117.5q0 27 -5 48.5t-19 39.5l-23 30q-8 11 -33.5 25.5t-34 18.5t-41 17.5t-34.5 15.5l-101 45q-203 84 -202 266q0 115 85 183.5t210 68.5q164 0 272 -63l-45 -91q-109 61 -221 62q-90 0 -140.5 -42t-50.5 -106 q0 -53 25.5 -92t55.5 -57t85 -43l98 -45q61 -27 84 -38t68 -44t63.5 -77t18.5 -103q0 -133 -88 -201t-236 -68q-178 0 -295 78z" />
<glyph unicode="t" horiz-adv-x="643" d="M76 868v90h145v359h115v-359h201v-90h-201v-544q0 -82 17.5 -134.5t51 -73t60.5 -26.5t65 -6q47 0 74 10v-92q-41 -16 -104 -16q-49 0 -93.5 12t-88.5 44t-70.5 98.5t-26.5 162.5v565h-145z" />
<glyph unicode="u" horiz-adv-x="1193" d="M211 299v659h111v-606q0 -88 25.5 -147.5t69.5 -84t81 -32.5t84 -8q98 0 188 86t90 227v565h109v-958h-111v147q-39 -61 -120 -115.5t-165 -54.5q-170 0 -266 84t-96 238z" />
<glyph unicode="v" horiz-adv-x="880" d="M47 958h113l286 -759l287 759h105l-398 -1021z" />
<glyph unicode="w" horiz-adv-x="1404" d="M47 958h123l270 -751l262 799l277 -799l268 751h111l-387 -1038l-271 789l-266 -789z" />
<glyph unicode="x" horiz-adv-x="903" d="M53 0l330 506l-299 452h135l232 -350l229 350h117l-287 -442l340 -516h-131l-275 414l-268 -414h-123z" />
<glyph unicode="y" horiz-adv-x="940" d="M82 958h121l291 -872l249 872h117l-328 -1085q-88 -291 -307 -291q-63 0 -125 19l31 100q55 -20 96 -20q57 0 99.5 29.5t64 75.5t31.5 82t12 64z" />
<glyph unicode="z" horiz-adv-x="937" d="M57 0l619 838h-561v106h770l-613 -842h596v-102h-811z" />
<glyph unicode="{" horiz-adv-x="899" d="M121 541v110h49q113 0 144.5 56.5t31.5 175.5v381q0 180 76 263t280 83h72v-97h-78q-133 0 -175 -61t-42 -182v-334q0 -18 1 -58t1 -55.5t-4 -47.5t-12 -46t-23.5 -38.5t-40 -39t-59.5 -31t-82 -28.5q47 -16 82 -35.5t59.5 -36t40 -42t23.5 -41t12 -48.5t4 -48t-1 -57 t-1 -61v-293q0 -119 42 -181t175 -62h78v-95h-72q-205 0 -280.5 83t-75.5 262v346q0 61 -5 100t-21.5 79t-54.5 59.5t-95 19.5h-49z" />
<glyph unicode="|" horiz-adv-x="598" d="M238 -383v1993h122v-1993h-122z" />
<glyph unicode="}" horiz-adv-x="899" d="M125 -313h78q133 0 175 62.5t42 180.5v293q0 18 -1 60.5t-1 57.5t4 48t12 48.5t23.5 41t40 42t59.5 35.5t82 36q-47 12 -82 28.5t-59.5 31t-40 39t-23.5 38.5t-12 46t-4 47.5t1 55.5t1 58v334q0 121 -42 182t-175 61h-78v97h72q205 0 280.5 -83t75.5 -263v-381 q0 -119 31.5 -175.5t144.5 -56.5h49v-110h-49q-57 0 -95 -19.5t-54.5 -59.5t-21.5 -79t-5 -100v-346q0 -178 -76 -261.5t-280 -83.5h-72v95z" />
<glyph unicode="~" horiz-adv-x="1124" d="M82 504q14 102 67.5 173t124.5 71q86 0 269.5 -77t236.5 -77h35q8 0 35 5t39 16.5t27.5 35t23.5 58.5h102q-14 -102 -67 -174t-125 -72q-80 0 -285 77.5t-221 77.5q-31 0 -45 -2t-42 -10t-45 -34.5t-28 -67.5h-102z" />
<glyph unicode="&#xa1;" horiz-adv-x="573" d="M223 248l41 573h49l37 -571v-633h-127v631zM233 1059v168h127v-168h-127z" />
<glyph unicode="&#xa2;" horiz-adv-x="1208" d="M147 580q0 180 112 348t310 213v198h70v-188q16 2 51 2q33 0 49 -2v188h70v-196q117 -20 201 -71.5t116 -96.5l-82 -74l-8 8q-6 8 -12 13.5l-18.5 16.5t-24.5 19.5t-31.5 18.5t-39 18.5t-46 16.5t-55.5 12v-913q131 29 258 149l80 -67q-82 -82 -155.5 -129.5 t-182.5 -61.5v-197h-70v191h-30q-20 0 -70 4v-195h-70v209q-174 45 -298 184.5t-124 381.5zM266 580q0 -172 84 -291t219 -164v895q-84 -23 -146.5 -77t-95 -120.5t-47 -128t-14.5 -114.5zM639 109q37 -6 74 -7h26v930q-16 2 -47 2q-37 0 -53 -2v-923z" />
<glyph unicode="&#xa3;" horiz-adv-x="1304" d="M135 147q0 86 49 139.5t138 53.5q59 0 96 -14.5t90 -53.5q78 125 78 211q0 18 -2 29h-320v70h305q-16 57 -51 100h-254v70h195l-99 114q-6 8 -28 34l-29 33l-25 31l-26 33l-21 33q-14 23 -18 37t-13.5 37.5t-12.5 45t-6 47.5t-3 54q0 115 74 205t179.5 132t217.5 42 q225 0 344 -112.5t119 -251.5h-117q-18 117 -107 186.5t-243 69.5q-123 0 -235.5 -81t-112.5 -186q0 -57 20.5 -110t40 -80t61.5 -75l52 -60q139 -172 143 -178h385v-70h-337q29 -53 36 -100h301v-70h-292v-18q0 -121 -99 -275q160 -127 295 -127q215 0 227 217h130 q0 -147 -93.5 -236t-255.5 -89q-182 0 -360 143q-41 -68 -83 -100.5t-67.5 -37.5t-66.5 -5q-88 0 -143.5 52t-55.5 111zM244 160q0 -31 31.5 -54.5t56.5 -23.5q33 0 58.5 24.5t64.5 86.5q-86 51 -129 51q-27 0 -54.5 -18.5t-27.5 -65.5z" />
<glyph unicode="&#xa4;" horiz-adv-x="1024" d="M111 647l186 184q-84 90 -84 216q0 102 61 180l-161 164l53 51l162 -164q82 63 188 63q125 0 209 -88l186 187l52 -54l-195 -190q43 -70 43 -158q0 -102 -66 -184l213 -213l-53 -51l-211 213q-86 -59 -186 -60q-80 0 -154 43l-192 -192zM283 1046.5q0 -96.5 64.5 -165 t160.5 -68.5t164.5 64.5t68.5 161t-64.5 165t-160.5 68.5t-164.5 -64.5t-68.5 -161z" />
<glyph unicode="&#xa5;" horiz-adv-x="1187" d="M39 1610h145l385 -758l410 758h131l-485 -844v-162h440v-72h-440v-172h440v-73h-440v-287h-123v287h-410v73h410v172h-410v72h410v160z" />
<glyph unicode="&#xa6;" horiz-adv-x="598" d="M238 -385v797h122v-797h-122zM238 813v797h122v-797h-122z" />
<glyph unicode="&#xa7;" horiz-adv-x="1359" d="M129 682q0 135 113.5 235.5t265.5 151.5q-94 49 -152.5 121t-58.5 145q0 145 112.5 225t327.5 80q152 0 353 -71l-33 -92q-172 78 -320 77q-139 0 -237.5 -61t-98.5 -158q0 -61 74 -118.5t166 -90.5l236 -86q63 -25 107 -45t95 -55t83 -74t53.5 -97t21.5 -128 q0 -37 -9 -70.5t-28.5 -62.5t-39 -52.5t-51.5 -44.5l-53 -36q-22 -14 -60 -31l-54 -23q-16 -7 -52 -20.5t-40 -15.5q213 -143 213 -279q0 -166 -130 -249t-310 -83q-94 0 -165 18.5t-165 55.5l-23 10l45 88q190 -70 308 -69q113 0 220 55t107 156q0 78 -75.5 145.5 t-155.5 93.5l-236 84q-66 25 -104.5 41.5t-93 49t-84 67.5t-51 90t-21.5 123zM240 682q0 -178 249 -266l213 -74q111 6 264.5 96t153.5 195q0 98 -49 166.5t-203 124.5l-243 88q-100 -4 -242.5 -121t-142.5 -209z" />
<glyph unicode="&#xa8;" horiz-adv-x="1024" d="M281 1108v123h102v-123h-102zM672 1108v123h102v-123h-102z" />
<glyph unicode="&#xa9;" horiz-adv-x="1236" d="M76 1079.5q0 223.5 158.5 383t384 159.5t384 -159.5t158.5 -383t-158.5 -383t-384 -159.5t-384 159.5t-158.5 383zM176 1079.5q0 -184.5 129 -316.5t313.5 -132t315.5 132t131 316.5t-131 316.5t-315.5 132t-313.5 -132t-129 -316.5zM324 1075q0 145 85 238.5t216 93.5 q135 0 225 -92l-62 -74q-68 70 -167 70q-88 0 -144.5 -64.5t-56.5 -171.5q0 -100 60.5 -172t154.5 -72t166 103l73 -57q-76 -139 -247 -140q-141 0 -222 93t-81 245z" />
<glyph unicode="&#xaa;" horiz-adv-x="688" d="M80 1188q0 78 63.5 136t198.5 58q84 0 150 -10v55q0 70 -44.5 96.5t-132.5 26.5q-102 0 -161 -39l-31 62q98 49 211 49q236 0 235 -172v-430l-75 4l-2 47q-90 -66 -207 -65q-205 0 -205 182zM158 1182q0 -53 37.5 -82t107.5 -29q109 0 189 70v168q-57 8 -164 8 q-170 0 -170 -135z" />
<glyph unicode="&#xab;" horiz-adv-x="1003" d="M117 424v137l311 309v-153l-227 -225l227 -226v-151zM559 424v137l311 309v-153l-227 -225l227 -226v-151z" />
<glyph unicode="&#xac;" horiz-adv-x="1124" d="M164 780v115h794v-498h-118v383h-676z" />
<glyph unicode="&#xad;" horiz-adv-x="645" d="M100 459v110h445v-110h-445z" />
<glyph unicode="&#xae;" horiz-adv-x="1236" d="M76 1079.5q0 223.5 158.5 383t384 159.5t384 -159.5t158.5 -383t-158.5 -383t-384 -159.5t-384 159.5t-158.5 383zM176 1079.5q0 -184.5 129 -316.5t313.5 -132t315.5 132t131 316.5t-131 316.5t-315.5 132t-313.5 -132t-129 -316.5zM428 780v613h213q84 0 137 -44 t53 -130q0 -76 -48 -128.5t-132 -52.5l215 -258h-125l-221 283v-283h-92zM520 1100l82 -4q7 0 13 -1q35 0 59 10q29 11 40 34.5t15 42t4 43.5q0 29 -5 44t-37 31.5t-93 16.5l-78 -4v-213z" />
<glyph unicode="&#xaf;" horiz-adv-x="1024" d="M299 1280v168h463v-168h-463z" />
<glyph unicode="&#xb0;" horiz-adv-x="634" d="M70 1188q0 96 72.5 165.5t176.5 69.5q109 0 177.5 -66.5t68.5 -169t-71.5 -169t-180.5 -66.5q-117 0 -180 66t-63 170zM170 1188q0 -68 41 -109t106.5 -41t105.5 42t40 108q0 63 -41 105t-104.5 42t-105.5 -43t-42 -104z" />
<glyph unicode="&#xb1;" horiz-adv-x="1124" d="M162 0v113h801v-113h-801zM164 539v112h338v340h112v-340h342v-112h-342v-340h-112v340h-338z" />
<glyph unicode="&#xb2;" horiz-adv-x="1024" d="M238 969l284 288q2 2 17 18l25 28l29 32q17 20 27.5 38t18.5 38.5t8 36.5q0 104 -129 104q-63 0 -98 -30.5t-35 -75.5v-35h-123v35q0 86 69.5 144.5t184.5 58.5t188.5 -46.5t73.5 -148.5q0 -45 -30.5 -98t-53 -78t-41.5 -41l-186 -168h338v-100h-567z" />
<glyph unicode="&#xb3;" horiz-adv-x="1024" d="M252 1010l63 82q100 -53 193 -54q66 0 107.5 31t41.5 78q0 94 -149 94h-78v92h78q57 0 91 31t34 78q0 92 -127 92q-84 0 -141 -76l-78 62q88 106 237 106q119 0 176.5 -53t57.5 -123q0 -78 -111 -150q135 -43 135 -153q0 -92 -72.5 -145.5t-201.5 -53.5q-135 1 -256 62z " />
<glyph unicode="&#xb4;" horiz-adv-x="1024" d="M383 1106l203 375h108l-202 -375h-109z" />
<glyph unicode="&#xb5;" horiz-adv-x="1107" d="M53 825v45h25q25 0 59.5 -2t59.5 -2q20 0 51 2t51 2h27v-585q0 -94 43 -138.5t141 -44.5q111 0 203 58v493q0 113 -18.5 142.5t-88.5 29.5h-18v45h28q23 0 58 -2t57 -2q20 0 51 2t52 2h28v-591q0 -119 19.5 -160t66.5 -41q14 0 26.5 2t19.5 5t16.5 10t12.5 10.5 l13.5 16.5t14.5 17h36q-43 -182 -225 -182q-68 0 -99.5 42t-49.5 114q-43 -43 -125 -88t-174 -45q-117 0 -172 61v-57q0 -59 28.5 -151.5t28.5 -123.5q0 -125 -90 -125q-82 0 -82 125q0 31 24.5 123t24.5 152v669q0 111 -19.5 141.5t-88.5 30.5h-15z" />
<glyph unicode="&#xb6;" horiz-adv-x="1665" d="M131 799q0 344 247 576.5t597 232.5h602v-127h-602v-1358h600v-127h-614q-342 0 -586 230.5t-244 572.5zM1237 307v981h131v-981h-131z" />
<glyph unicode="&#xb7;" horiz-adv-x="1024" d="M303 649l213 244l207 -252l-207 -244z" />
<glyph unicode="&#xb8;" horiz-adv-x="1024" d="M98 -395l86 96q57 -29 135 -29q31 0 49.5 2t45 9.5t43 27t22.5 49.5v13q0 49 -94 49q-43 0 -104 -21l-33 47l155 234l121 -47l-90 -125q43 6 66 6q131 0 131 -111q0 -23 -6 -47q-39 -199 -332 -198q-109 0 -195 45z" />
<glyph unicode="&#xb9;" horiz-adv-x="1024" d="M322 1397v94q57 6 120.5 39t92.5 80h90v-643h-125v506q-63 -66 -178 -76z" />
<glyph unicode="&#xba;" horiz-adv-x="841" d="M119 1317q0 127 80 216t221 89t222 -90t81 -215q0 -150 -92 -230.5t-211 -80.5q-121 0 -211 80.5t-90 230.5zM199 1317q0 -111 60 -177.5t163 -66.5q98 0 159.5 66.5t61.5 177.5q0 115 -64.5 176t-156.5 61q-94 0 -158.5 -60t-64.5 -177z" />
<glyph unicode="&#xbb;" horiz-adv-x="1003" d="M133 113v153l227 226l-227 225v151l311 -309v-137zM575 113v153l228 226l-228 225v151l312 -309v-137z" />
<glyph unicode="&#xbc;" d="M203 766v90h1009v-90h-1009zM348 223l381 449h84v-436h123v-101h-123v-127h-115v129h-348zM467 236h231v274zM485 1397v94q57 6 121 39t92 80h90v-643h-124v506q-64 -66 -179 -76z" />
<glyph unicode="&#xbd;" d="M203 766v90h1009v-90h-1009zM410 10l284 289l17 17l25 28l29 33q17 20 27.5 37.5t18.5 38t8 36.5q0 104 -129 105q-63 0 -98 -31t-35 -76v-34h-123v34q0 86 69.5 144.5t184.5 58.5t188.5 -46t73.5 -148q0 -45 -30.5 -98.5t-53 -78t-41.5 -40.5l-186 -168h338v-101h-567z M485 1397v94q57 6 121 39t92 80h90v-643h-124v506q-64 -66 -179 -76z" />
<glyph unicode="&#xbe;" d="M203 766v90h1009v-90h-1009zM348 223l381 449h84v-436h123v-101h-123v-127h-115v129h-348zM438 1016l60 80q98 -53 184 -54q61 0 102 30t41 79q0 98 -143 98h-72v92h72q55 0 87 30t32 79q0 92 -121 92q-80 0 -135 -76l-74 62q82 109 227 108q113 0 168.5 -54t55.5 -124 q0 -82 -109 -149q131 -43 131 -158q0 -92 -69.5 -145.5t-192.5 -53.5q-131 1 -244 64zM467 236h231v274z" />
<glyph unicode="&#xbf;" horiz-adv-x="907" d="M111 -66q0 160 174 398q68 88 110.5 220t42.5 271h129q0 -197 -78 -374q-23 -53 -88 -161t-110 -198t-45 -149q0 -215 248 -215q188 0 239 168l113 -25q-4 -98 -114.5 -176t-258.5 -78q-57 0 -113.5 13.5t-116 46t-96 99t-36.5 160.5zM440 1059v168h127v-168h-127z" />
<glyph unicode="&#xc0;" horiz-adv-x="1378" d="M92 0l592 1683l602 -1683h-125l-184 543h-576l-184 -543h-125zM436 645h496l-256 715zM522 2011h115l135 -268h-115z" />
<glyph unicode="&#xc1;" horiz-adv-x="1378" d="M92 0l592 1683l602 -1683h-125l-184 543h-576l-184 -543h-125zM436 645h496l-256 715zM635 1741l203 375h108l-203 -375h-108z" />
<glyph unicode="&#xc2;" horiz-adv-x="1378" d="M92 0l592 1683l602 -1683h-125l-184 543h-576l-184 -543h-125zM436 645h496l-256 715zM463 1743l164 256h131l166 -256h-99l-133 207l-131 -207h-98z" />
<glyph unicode="&#xc3;" horiz-adv-x="1378" d="M92 0l592 1683l602 -1683h-125l-184 543h-576l-184 -543h-125zM424 1743q14 57 47 96t82 39q47 0 134 -27.5t130 -27.5q39 0 47 53h103q-14 -63 -54.5 -99t-83.5 -36t-131 25.5t-114 25.5h-6h-8q-1 0 -6 -1t-7 -1t-6 -2t-6 -5t-5 -6t-5.5 -8.5t-5.5 -11.5t-5 -14h-100z M436 645h496l-256 715z" />
<glyph unicode="&#xc4;" horiz-adv-x="1378" d="M92 0l592 1683l602 -1683h-125l-184 543h-576l-184 -543h-125zM436 645h496l-256 715zM442 1743v123h103v-123h-103zM834 1743v123h102v-123h-102z" />
<glyph unicode="&#xc5;" horiz-adv-x="1378" d="M92 0l592 1683l602 -1683h-125l-184 543h-576l-184 -543h-125zM436 645h496l-256 715zM516 1907q0 74 46 121t116 47q72 0 117 -47.5t45 -120.5q0 -72 -46 -119t-116 -47t-116 47t-46 119zM557 1907q0 -55 35 -92t86 -37q45 0 83 37.5t38 91.5q0 51 -34 91t-87 40 t-87 -41t-34 -90z" />
<glyph unicode="&#xc6;" horiz-adv-x="2033" d="M0 0l1057 1610h862v-103h-684v-628h657v-103h-657v-674h737v-102h-860v539h-620l-342 -539h-150zM551 641h561v860z" />
<glyph unicode="&#xc7;" horiz-adv-x="1591" d="M131 807q0 334 230.5 574.5t570.5 240.5q324 0 516 -166l-80 -82q-197 139 -434 139q-270 0 -470 -208.5t-200 -497.5q0 -307 194.5 -516t487.5 -209q272 0 500 209l78 -86q-190 -213 -541 -232l-76 -110q53 13 99 13q72 0 129 -32q92 -51 92 -149q0 -92 -68.5 -144.5 t-161.5 -54.5q-176 0 -301 92l52 80q45 -35 110 -58q60 -22 112 -22h9q55 0 95 31t40 78q0 41 -45 65.5t-100 24.5q-94 0 -121 -23l-70 68l88 143q-324 27 -529.5 249.5t-205.5 582.5z" />
<glyph unicode="&#xc8;" horiz-adv-x="1181" d="M260 0v1610h807v-107h-684v-622h657v-107h-657v-668h737v-106h-860zM496 1993h114l135 -269h-114z" />
<glyph unicode="&#xc9;" horiz-adv-x="1181" d="M260 0v1610h807v-107h-684v-622h657v-107h-657v-668h737v-106h-860zM584 1720l202 375h109l-203 -375h-108z" />
<glyph unicode="&#xca;" horiz-adv-x="1181" d="M260 0v1610h807v-107h-684v-622h657v-107h-657v-668h737v-106h-860zM442 1743l164 256h131l166 -256h-98l-133 207l-131 -207h-99z" />
<glyph unicode="&#xcb;" horiz-adv-x="1181" d="M260 0v1610h807v-107h-684v-622h657v-107h-657v-668h737v-106h-860zM422 1722v123h102v-123h-102zM813 1722v123h102v-123h-102z" />
<glyph unicode="&#xcc;" horiz-adv-x="643" d="M207 1993h115l135 -269h-115zM260 0v1610h123v-1610h-123z" />
<glyph unicode="&#xcd;" horiz-adv-x="643" d="M260 0v1610h123v-1610h-123zM262 1720l203 375h108l-202 -375h-109z" />
<glyph unicode="&#xce;" horiz-adv-x="643" d="M94 1722l164 256h131l166 -256h-98l-133 207l-131 -207h-99zM260 0v1610h123v-1610h-123z" />
<glyph unicode="&#xcf;" horiz-adv-x="643" d="M90 1722v123h103v-123h-103zM260 0v1610h123v-1610h-123zM481 1722v123h103v-123h-103z" />
<glyph unicode="&#xd0;" horiz-adv-x="1638" d="M4 778v78h256v754h387q383 0 621.5 -211t238.5 -627q0 -346 -241.5 -559t-591.5 -213h-414v778h-256zM383 106h252q326 0 536.5 188.5t210.5 477.5q0 111 -18 208t-71.5 196.5t-137.5 169t-224 113.5t-325 44h-223v-647h311v-78h-311v-672z" />
<glyph unicode="&#xd1;" horiz-adv-x="1742" d="M260 0v1681l1100 -1394v1351h123v-1701l-1100 1394v-1331h-123zM606 1722q14 57 47 96.5t82 39.5q47 0 134 -28t130 -28q39 0 48 53h102q-14 -63 -54 -99t-83 -36t-131 26t-115 26h-6h-7q-1 0 -6.5 -1.5t-7.5 -1.5t-6 -2t-6 -5t-5 -6t-5 -8t-5 -11t-5 -15h-101z" />
<glyph unicode="&#xd2;" horiz-adv-x="1880" d="M131 799q0 350 218 586.5t591 236.5q371 0 590 -236.5t219 -586.5q0 -352 -219 -589t-590 -237q-254 0 -440.5 113t-277.5 297.5t-91 415.5zM264 805q0 -317 195.5 -520t480.5 -203t480.5 196.5t195.5 520.5q0 326 -194.5 518t-481.5 192q-289 0 -482.5 -189t-193.5 -515 zM784 1993h115l135 -269h-114z" />
<glyph unicode="&#xd3;" horiz-adv-x="1880" d="M131 799q0 350 218 586.5t591 236.5q371 0 590 -236.5t219 -586.5q0 -352 -219 -589t-590 -237q-254 0 -440.5 113t-277.5 297.5t-91 415.5zM264 805q0 -317 195.5 -520t480.5 -203t480.5 196.5t195.5 520.5q0 326 -194.5 518t-481.5 192q-289 0 -482.5 -189t-193.5 -515 zM836 1720l202 375h109l-203 -375h-108z" />
<glyph unicode="&#xd4;" horiz-adv-x="1880" d="M131 799q0 350 218 586.5t591 236.5q371 0 590 -236.5t219 -586.5q0 -352 -219 -589t-590 -237q-254 0 -440.5 113t-277.5 297.5t-91 415.5zM264 805q0 -317 195.5 -520t480.5 -203t480.5 196.5t195.5 520.5q0 326 -194.5 518t-481.5 192q-289 0 -482.5 -189t-193.5 -515 zM713 1722l164 256h131l166 -256h-99l-133 207l-131 -207h-98z" />
<glyph unicode="&#xd5;" horiz-adv-x="1880" d="M131 799q0 350 218 586.5t591 236.5q371 0 590 -236.5t219 -586.5q0 -352 -219 -589t-590 -237q-254 0 -440.5 113t-277.5 297.5t-91 415.5zM264 805q0 -317 195.5 -520t480.5 -203t480.5 196.5t195.5 520.5q0 326 -194.5 518t-481.5 192q-289 0 -482.5 -189t-193.5 -515 zM694 1722q14 57 47 96.5t82 39.5q47 0 134 -28t130 -28q39 0 48 53h102q-14 -63 -54 -99t-83 -36t-131 26t-115 26h-6h-7q-1 0 -6.5 -1.5t-7.5 -1.5t-6 -2t-6 -5t-5 -6t-5 -8t-5 -11t-5 -15h-101z" />
<glyph unicode="&#xd6;" horiz-adv-x="1880" d="M131 799q0 350 218 586.5t591 236.5q371 0 590 -236.5t219 -586.5q0 -352 -219 -589t-590 -237q-254 0 -440.5 113t-277.5 297.5t-91 415.5zM264 805q0 -317 195.5 -520t480.5 -203t480.5 196.5t195.5 520.5q0 326 -194.5 518t-481.5 192q-289 0 -482.5 -189t-193.5 -515 zM698 1722v123h103v-123h-103zM1090 1722v123h102v-123h-102z" />
<glyph unicode="&#xd7;" horiz-adv-x="1124" d="M145 221l336 369l-336 368l84 93l336 -369l346 385l84 -92l-346 -385l346 -385l-84 -92l-346 385l-336 -369z" />
<glyph unicode="&#xd8;" horiz-adv-x="1880" d="M131 799q0 350 218 586.5t591 236.5q260 0 453 -125l125 184l79 -45l-131 -192q135 -113 209 -281t74 -364q0 -352 -219 -589t-590 -237q-227 0 -405 93l-132 -197l-81 49l133 197q-156 109 -240 289t-84 395zM264 805q0 -184 69.5 -335t194.5 -247l797 1174 q-170 113 -385 112q-289 0 -482.5 -189t-193.5 -515zM606 170q152 -88 334 -88q285 0 480.5 196.5t195.5 520.5q0 342 -219 540z" />
<glyph unicode="&#xd9;" horiz-adv-x="1693" d="M223 643v969h123v-889q0 -301 136 -463t372 -162q233 0 363.5 161t130.5 464v889h122v-969q0 -172 -63.5 -318.5t-206.5 -245.5t-346 -99q-303 0 -467 191t-164 472zM678 1993h115l135 -269h-115z" />
<glyph unicode="&#xda;" horiz-adv-x="1693" d="M223 643v969h123v-889q0 -301 136 -463t372 -162q233 0 363.5 161t130.5 464v889h122v-969q0 -172 -63.5 -318.5t-206.5 -245.5t-346 -99q-303 0 -467 191t-164 472zM709 1720l202 375h109l-203 -375h-108z" />
<glyph unicode="&#xdb;" horiz-adv-x="1693" d="M223 643v969h123v-889q0 -301 136 -463t372 -162q233 0 363.5 161t130.5 464v889h122v-969q0 -172 -63.5 -318.5t-206.5 -245.5t-346 -99q-303 0 -467 191t-164 472zM635 1722l164 256h131l166 -256h-99l-133 207l-131 -207h-98z" />
<glyph unicode="&#xdc;" horiz-adv-x="1693" d="M223 643v969h123v-889q0 -301 136 -463t372 -162q233 0 363.5 161t130.5 464v889h122v-969q0 -172 -63.5 -318.5t-206.5 -245.5t-346 -99q-303 0 -467 191t-164 472zM608 1489v123h103v-123h-103zM999 1489v123h103v-123h-103z" />
<glyph unicode="&#xdd;" horiz-adv-x="1187" d="M6 1608h139l455 -727l447 729h133l-525 -848v-762h-123v760zM473 1720l203 375h108l-202 -375h-109z" />
<glyph unicode="&#xde;" horiz-adv-x="1183" d="M260 0v1610h119v-328h283q236 0 371.5 -109.5t135.5 -328.5q0 -178 -135 -300t-407 -122h-244v-422h-123zM383 528h240q201 0 314.5 85t113.5 229q0 57 -14.5 108t-52.5 105.5t-121 87.5t-201 33h-279v-648z" />
<glyph unicode="&#xdf;" horiz-adv-x="1236" d="M225 0v1210q0 115 33 198t89 126t116.5 62.5t128.5 19.5q158 0 253 -82t95 -225q0 -106 -66.5 -207t-220.5 -137q201 -47 302.5 -194.5t101.5 -332.5q0 -250 -119 -360.5t-299 -110.5q-94 0 -199 41v94q92 -39 199 -39q147 0 225 98.5t78 268.5q0 115 -35 201t-104.5 142 t-146 91t-187.5 68v102h76q121 0 201.5 74t80.5 197q0 82 -54 149.5t-183 67.5q-111 0 -182.5 -73t-71.5 -275v-1174h-111z" />
<glyph unicode="&#xe0;" horiz-adv-x="1105" d="M98 270q0 129 104.5 223.5t325.5 94.5q164 0 256 -19v99q0 123 -75.5 170t-225.5 47q-154 0 -268 -74l-47 96q160 78 344 78q383 0 383 -278v-707h-111v92q-145 -115 -354 -115q-143 0 -237.5 66.5t-94.5 226.5zM211 260q0 -90 66.5 -141t185.5 -51q80 0 170 34.5 t151 85.5v289q-111 18 -280 19q-135 0 -214 -57.5t-79 -178.5zM356 1378h115l135 -268h-114z" />
<glyph unicode="&#xe1;" horiz-adv-x="1105" d="M98 270q0 129 104.5 223.5t325.5 94.5q164 0 256 -19v99q0 123 -75.5 170t-225.5 47q-154 0 -268 -74l-47 96q160 78 344 78q383 0 383 -278v-707h-111v92q-145 -115 -354 -115q-143 0 -237.5 66.5t-94.5 226.5zM211 260q0 -90 66.5 -141t185.5 -51q80 0 170 34.5 t151 85.5v289q-111 18 -280 19q-135 0 -214 -57.5t-79 -178.5zM449 1106l202 375h109l-203 -375h-108z" />
<glyph unicode="&#xe2;" horiz-adv-x="1105" d="M98 270q0 129 104.5 223.5t325.5 94.5q164 0 256 -19v99q0 123 -75.5 170t-225.5 47q-154 0 -268 -74l-47 96q160 78 344 78q383 0 383 -278v-707h-111v92q-145 -115 -354 -115q-143 0 -237.5 66.5t-94.5 226.5zM211 260q0 -90 66.5 -141t185.5 -51q80 0 170 34.5 t151 85.5v289q-111 18 -280 19q-135 0 -214 -57.5t-79 -178.5zM276 1108l164 256h131l166 -256h-98l-133 207l-131 -207h-99z" />
<glyph unicode="&#xe3;" horiz-adv-x="1105" d="M98 270q0 129 104.5 223.5t325.5 94.5q164 0 256 -19v99q0 123 -75.5 170t-225.5 47q-154 0 -268 -74l-47 96q160 78 344 78q383 0 383 -278v-707h-111v92q-145 -115 -354 -115q-143 0 -237.5 66.5t-94.5 226.5zM211 260q0 -90 66.5 -141t185.5 -51q80 0 170 34.5 t151 85.5v289q-111 18 -280 19q-135 0 -214 -57.5t-79 -178.5zM225 1108q14 57 47 96t82 39q47 0 134 -27.5t130 -27.5q39 0 48 53h102q-14 -63 -54 -99t-83 -36t-131 25.5t-115 25.5h-6h-7q-1 0 -6.5 -1t-7.5 -1t-6 -2t-6 -5t-5 -6t-5 -8.5t-5 -11.5t-5 -14h-101z" />
<glyph unicode="&#xe4;" horiz-adv-x="1105" d="M98 270q0 129 104.5 223.5t325.5 94.5q164 0 256 -19v99q0 123 -75.5 170t-225.5 47q-154 0 -268 -74l-47 96q160 78 344 78q383 0 383 -278v-707h-111v92q-145 -115 -354 -115q-143 0 -237.5 66.5t-94.5 226.5zM211 260q0 -90 66.5 -141t185.5 -51q80 0 170 34.5 t151 85.5v289q-111 18 -280 19q-135 0 -214 -57.5t-79 -178.5zM272 1108v123h103v-123h-103zM664 1108v123h102v-123h-102z" />
<glyph unicode="&#xe5;" horiz-adv-x="1105" d="M98 270q0 129 104.5 223.5t325.5 94.5q164 0 256 -19v99q0 123 -75.5 170t-225.5 47q-154 0 -268 -74l-47 96q160 78 344 78q383 0 383 -278v-707h-111v92q-145 -115 -354 -115q-143 0 -237.5 66.5t-94.5 226.5zM211 260q0 -90 66.5 -141t185.5 -51q80 0 170 34.5 t151 85.5v289q-111 18 -280 19q-135 0 -214 -57.5t-79 -178.5zM346 1264q0 74 46 121t116 47q72 0 117 -47.5t45 -120.5q0 -72 -46 -119t-116 -47t-116 47t-46 119zM387 1264q0 -55 35 -92t86 -37q45 0 83 37.5t38 91.5q0 51 -34 91t-87 40t-87 -41t-34 -90z" />
<glyph unicode="&#xe6;" horiz-adv-x="1816" d="M98 250q0 145 112 236.5t351 91.5h221v94q0 74 -32.5 122t-86 65.5t-82 21.5t-61.5 4q-106 0 -168.5 -18.5t-140.5 -61.5l-45 100q162 78 354 78q313 0 361 -197q55 88 157.5 141.5t218.5 53.5q201 0 319 -122t118 -380h-791q-1 -18 -1 -35q0 -158 102 -256 q113 -109 262 -108q117 0 193.5 40t150.5 118l69 -93q-98 -90 -190 -131t-223 -41q-129 0 -241 57.5t-177 149.5q-41 -47 -65.5 -69.5t-77 -60.5t-118 -55.5t-145.5 -17.5q-170 0 -257 75t-87 198zM213 260q0 -190 221 -190q98 0 194.5 48t153.5 152v213h-204 q-164 0 -264.5 -55t-100.5 -168zM907 578h664q0 129 -96.5 216t-214.5 87q-111 0 -220.5 -75.5t-132.5 -227.5z" />
<glyph unicode="&#xe7;" horiz-adv-x="1032" d="M102 487q0 221 129 359.5t347 138.5q102 0 196 -39t154 -119l-74 -79q-117 133 -301 133q-145 0 -237.5 -108.5t-92.5 -293.5q0 -176 104.5 -287.5t243.5 -111.5q193 0 320 141l61 -82q-78 -92 -167 -127t-203 -35l-50 -98q47 12 88 12q58 0 102 -24q75 -41 75 -121 q0 -147 -179 -152q-72 0 -112.5 9.5t-118.5 46.5l45 69q96 -57 166 -57q53 0 84 22.5t31 63.5q0 68 -117 68q-80 0 -107 -17l-49 62l62 121q-178 27 -289 163.5t-111 341.5z" />
<glyph unicode="&#xe8;" horiz-adv-x="1103" d="M102 481q0 244 142.5 374t337.5 130q203 0 319.5 -121t116.5 -381h-797q4 -106 43 -189t97.5 -128t117 -66.5t111.5 -21.5q195 0 344 164l70 -92q-98 -90 -190.5 -131.5t-223.5 -41.5q-193 0 -340.5 129t-147.5 375zM227 588h668q-6 129 -95 214t-216 85 q-125 0 -228.5 -74.5t-128.5 -224.5zM434 1378h115l135 -268h-115z" />
<glyph unicode="&#xe9;" horiz-adv-x="1103" d="M102 481q0 244 142.5 374t337.5 130q203 0 319.5 -121t116.5 -381h-797q4 -106 43 -189t97.5 -128t117 -66.5t111.5 -21.5q195 0 344 164l70 -92q-98 -90 -190.5 -131.5t-223.5 -41.5q-193 0 -340.5 129t-147.5 375zM227 588h668q-6 129 -95 214t-216 85 q-125 0 -228.5 -74.5t-128.5 -224.5zM489 1106l203 375h109l-203 -375h-109z" />
<glyph unicode="&#xea;" horiz-adv-x="1103" d="M102 481q0 244 142.5 374t337.5 130q203 0 319.5 -121t116.5 -381h-797q4 -106 43 -189t97.5 -128t117 -66.5t111.5 -21.5q195 0 344 164l70 -92q-98 -90 -190.5 -131.5t-223.5 -41.5q-193 0 -340.5 129t-147.5 375zM227 588h668q-6 129 -95 214t-216 85 q-125 0 -228.5 -74.5t-128.5 -224.5zM348 1108l164 256h131l166 -256h-98l-133 207l-132 -207h-98z" />
<glyph unicode="&#xeb;" horiz-adv-x="1103" d="M102 481q0 244 142.5 374t337.5 130q203 0 319.5 -121t116.5 -381h-797q4 -106 43 -189t97.5 -128t117 -66.5t111.5 -21.5q195 0 344 164l70 -92q-98 -90 -190.5 -131.5t-223.5 -41.5q-193 0 -340.5 129t-147.5 375zM227 588h668q-6 129 -95 214t-216 85 q-125 0 -228.5 -74.5t-128.5 -224.5zM336 1108v123h102v-123h-102zM727 1108v123h102v-123h-102z" />
<glyph unicode="&#xec;" horiz-adv-x="561" d="M111 1378h114l135 -268h-114zM221 0v958h90v-958h-90z" />
<glyph unicode="&#xed;" horiz-adv-x="561" d="M215 1106l203 375h108l-202 -375h-109zM221 0v958h90v-958h-90z" />
<glyph unicode="&#xee;" horiz-adv-x="561" d="M35 1108l164 256h131l166 -256h-99l-133 207l-131 -207h-98zM221 0v958h90v-958h-90z" />
<glyph unicode="&#xef;" horiz-adv-x="561" d="M14 1108v123h103v-123h-103zM221 0v958h90v-958h-90zM406 1108v123h102v-123h-102z" />
<glyph unicode="&#xf0;" horiz-adv-x="1206" d="M102 547q0 207 135.5 351t350.5 144q233 0 370 -176q-27 182 -165 412l-258 -78l-23 74l238 72q-117 174 -236 268h145q113 -115 195 -236l260 80l23 -74q-238 -74 -240 -73q207 -338 207 -725q0 -272 -132 -438t-364 -166q-229 0 -367.5 148.5t-138.5 416.5zM225 543 q0 -207 98.5 -336t280.5 -129q166 0 272.5 136t106.5 323q0 117 -42 202.5t-106.5 126.5t-123 58.5t-113.5 17.5q-137 0 -255 -106.5t-118 -292.5z" />
<glyph unicode="&#xf1;" horiz-adv-x="1193" d="M225 0v958h111v-139q63 90 145 126t152 36q57 0 113.5 -15.5t112.5 -49t90 -100t34 -159.5v-657h-111v590q0 287 -243 287q-125 0 -210 -87.5t-85 -222.5v-567h-109zM348 1108q14 57 47 96t82 39q47 0 134 -27.5t130 -27.5q39 0 47 53h103q-14 -63 -54 -99t-83 -36 t-131 25.5t-115 25.5h-6h-7q-1 0 -6.5 -1t-7.5 -1t-6 -2t-6 -5t-5 -6t-5 -8.5t-5 -11.5t-5 -14h-101z" />
<glyph unicode="&#xf2;" horiz-adv-x="1191" d="M102 483q0 209 132.5 355.5t361.5 146.5t361.5 -146.5t132.5 -355.5q0 -242 -149.5 -374t-344.5 -132q-199 0 -346.5 132t-147.5 374zM217 483q0 -186 104.5 -298.5t278.5 -112.5q166 0 270.5 112.5t104.5 298.5q0 199 -109.5 303.5t-267.5 104.5q-160 0 -270.5 -104.5 t-110.5 -303.5zM438 1378h115l135 -268h-115z" />
<glyph unicode="&#xf3;" horiz-adv-x="1191" d="M102 483q0 209 132.5 355.5t361.5 146.5t361.5 -146.5t132.5 -355.5q0 -242 -149.5 -374t-344.5 -132q-199 0 -346.5 132t-147.5 374zM217 483q0 -186 104.5 -298.5t278.5 -112.5q166 0 270.5 112.5t104.5 298.5q0 199 -109.5 303.5t-267.5 104.5q-160 0 -270.5 -104.5 t-110.5 -303.5zM530 1106l203 375h109l-203 -375h-109z" />
<glyph unicode="&#xf4;" horiz-adv-x="1191" d="M102 483q0 209 132.5 355.5t361.5 146.5t361.5 -146.5t132.5 -355.5q0 -242 -149.5 -374t-344.5 -132q-199 0 -346.5 132t-147.5 374zM217 483q0 -186 104.5 -298.5t278.5 -112.5q166 0 270.5 112.5t104.5 298.5q0 199 -109.5 303.5t-267.5 104.5q-160 0 -270.5 -104.5 t-110.5 -303.5zM358 1108l164 256h131l166 -256h-98l-133 207l-131 -207h-99z" />
<glyph unicode="&#xf5;" horiz-adv-x="1191" d="M102 483q0 209 132.5 355.5t361.5 146.5t361.5 -146.5t132.5 -355.5q0 -242 -149.5 -374t-344.5 -132q-199 0 -346.5 132t-147.5 374zM217 483q0 -186 104.5 -298.5t278.5 -112.5q166 0 270.5 112.5t104.5 298.5q0 199 -109.5 303.5t-267.5 104.5q-160 0 -270.5 -104.5 t-110.5 -303.5zM344 1108q14 57 47 96t82 39q47 0 134 -27.5t130 -27.5q39 0 47 53h103q-14 -63 -54 -99t-83 -36t-131.5 25.5t-114.5 25.5h-6h-8q-1 0 -6 -1t-7 -1t-6 -2t-6 -5t-5 -6t-5 -8.5t-5.5 -11.5t-5.5 -14h-100z" />
<glyph unicode="&#xf6;" horiz-adv-x="1191" d="M102 483q0 209 132.5 355.5t361.5 146.5t361.5 -146.5t132.5 -355.5q0 -242 -149.5 -374t-344.5 -132q-199 0 -346.5 132t-147.5 374zM217 483q0 -186 104.5 -298.5t278.5 -112.5q166 0 270.5 112.5t104.5 298.5q0 199 -109.5 303.5t-267.5 104.5q-160 0 -270.5 -104.5 t-110.5 -303.5zM354 1108v123h103v-123h-103zM745 1108v123h103v-123h-103z" />
<glyph unicode="&#xf7;" horiz-adv-x="1126" d="M174 406v112h776v-112h-776zM444 166q0 47 34 81t81 34t80 -33t33 -82t-34 -82t-85 -33q-45 0 -77 34t-32 81zM444 760q0 47 34 80.5t81 33.5t80 -32.5t33 -81.5t-34 -82t-85 -33q-45 0 -77 34t-32 81z" />
<glyph unicode="&#xf8;" horiz-adv-x="1191" d="M102 483q0 209 132.5 355.5t361.5 146.5q135 0 235 -53l142 213l63 -45l-137 -209q190 -143 191 -408q0 -242 -149.5 -374t-344.5 -132q-135 0 -254 66l-115 -174l-65 49l112 170q-172 137 -172 395zM217 483.5q0 -198.5 115 -309.5l446 676q-80 41 -180 41 q-160 0 -270.5 -104.5t-110.5 -303zM395 125q88 -53 205 -53q166 0 270.5 112.5t104.5 298.5q0 211 -131 322z" />
<glyph unicode="&#xf9;" horiz-adv-x="1193" d="M211 299v659h111v-606q0 -88 25.5 -147.5t69.5 -84t81 -32.5t84 -8q98 0 188 86t90 227v565h109v-958h-111v147q-39 -61 -120 -115.5t-165 -54.5q-170 0 -266 84t-96 238zM451 1378h114l135 -268h-114z" />
<glyph unicode="&#xfa;" horiz-adv-x="1193" d="M211 299v659h111v-606q0 -88 25.5 -147.5t69.5 -84t81 -32.5t84 -8q98 0 188 86t90 227v565h109v-958h-111v147q-39 -61 -120 -115.5t-165 -54.5q-170 0 -266 84t-96 238zM489 1106l203 375h109l-203 -375h-109z" />
<glyph unicode="&#xfb;" horiz-adv-x="1193" d="M211 299v659h111v-606q0 -88 25.5 -147.5t69.5 -84t81 -32.5t84 -8q98 0 188 86t90 227v565h109v-958h-111v147q-39 -61 -120 -115.5t-165 -54.5q-170 0 -266 84t-96 238zM358 1108l164 256h131l166 -256h-98l-133 207l-131 -207h-99z" />
<glyph unicode="&#xfc;" horiz-adv-x="1193" d="M211 299v659h111v-606q0 -88 25.5 -147.5t69.5 -84t81 -32.5t84 -8q98 0 188 86t90 227v565h109v-958h-111v147q-39 -61 -120 -115.5t-165 -54.5q-170 0 -266 84t-96 238zM350 1108v123h103v-123h-103zM741 1108v123h103v-123h-103z" />
<glyph unicode="&#xfd;" horiz-adv-x="940" d="M82 958h121l291 -872l249 872h117l-328 -1085q-88 -291 -307 -291q-63 0 -125 19l31 100q55 -20 96 -20q57 0 99.5 29.5t64 75.5t31.5 82t12 64zM391 1106l203 375h108l-202 -375h-109z" />
<glyph unicode="&#xfe;" horiz-adv-x="1191" d="M170 -410v2020h109v-819q39 76 133 133t237 57q199 0 320 -134t121 -384q0 -195 -122 -340.5t-323 -145.5q-137 0 -231.5 54.5t-134.5 128.5v-570h-109zM285 465q0 -63 19.5 -128t59 -124t112.5 -97t167 -38q145 0 235.5 109.5t90.5 289.5q0 178 -87 292t-249 114 q-170 0 -259 -120t-89 -298z" />
<glyph unicode="&#xff;" horiz-adv-x="940" d="M82 958h121l291 -872l249 872h117l-328 -1085q-88 -291 -307 -291q-63 0 -125 19l31 100q55 -20 96 -20q57 0 99.5 29.5t64 75.5t31.5 82t12 64zM231 1108v123h103v-123h-103zM623 1108v123h102v-123h-102z" />
<glyph unicode="&#x152;" horiz-adv-x="2502" d="M131 799q0 213 91 398t274.5 305t418.5 120q213 0 386.5 -90t279.5 -250v328h807v-103h-684v-628h657v-103h-657v-674h737v-102h-860v311q-102 -158 -267 -248t-372 -90q-348 0 -579.5 237t-231.5 589zM256 799q0 -156 62.5 -291t162 -223t220 -138.5t241.5 -50.5 q272 0 456.5 195.5t184.5 507.5q0 328 -185.5 515t-482.5 187q-270 0 -464.5 -210.5t-194.5 -491.5z" />
<glyph unicode="&#x153;" horiz-adv-x="1935" d="M66 479q0 207 124.5 354.5t366.5 147.5q309 0 432 -248q61 123 177 185.5t247 62.5q201 0 318.5 -122t117.5 -380h-796q4 -106 43 -188t97 -124t115.5 -62.5t112.5 -20.5q111 0 204 51t140 103l70 -93q-98 -90 -190.5 -131t-223.5 -41q-125 0 -244.5 63.5t-185.5 186.5 q-57 -119 -169.5 -184.5t-264.5 -65.5q-207 0 -349 130t-142 376zM178 479q0 -178 117 -288.5t264 -110.5q143 0 260 106.5t117 292.5q0 100 -35 179t-92 125t-121.5 70t-130.5 24q-143 0 -261 -102.5t-118 -295.5zM1059 584h667q0 129 -95 211t-216 82q-117 0 -224 -73 t-132 -220z" />
<glyph unicode="&#x178;" horiz-adv-x="1187" d="M6 1608h139l455 -727l447 729h133l-525 -848v-762h-123v760zM365 1722v123h102v-123h-102zM756 1722v123h102v-123h-102z" />
<glyph unicode="&#x2c6;" horiz-adv-x="1024" d="M297 1108l164 256h131l166 -256h-99l-133 207l-131 -207h-98z" />
<glyph unicode="&#x2dc;" horiz-adv-x="1024" d="M240 1108q14 57 46.5 96t82.5 39q47 0 134 -27.5t130 -27.5q39 0 47 53h102q-14 -63 -54 -99t-83 -36t-131 25.5t-115 25.5h-6h-7q-1 0 -6 -1t-7 -1t-6.5 -2t-6.5 -5t-5 -6t-5 -8.5t-5 -11.5t-5 -14h-100z" />
<glyph unicode="&#x2013;" horiz-adv-x="1017" d="M61 459v110h895v-110h-895z" />
<glyph unicode="&#x2014;" horiz-adv-x="2041" d="M61 459v110h1919v-110h-1919z" />
<glyph unicode="&#x2018;" horiz-adv-x="512" d="M166 1171v89q0 143 21.5 209.5t76.5 144.5h80q-51 -156 -51 -279v-164h-127z" />
<glyph unicode="&#x2019;" horiz-adv-x="512" d="M168 1171q51 156 51 279v164h127v-88q0 -143 -21.5 -210t-76.5 -145h-80z" />
<glyph unicode="&#x201a;" horiz-adv-x="505" d="M145 -274q51 156 52 278v164h127v-88q0 -143 -21.5 -210t-77.5 -144h-80z" />
<glyph unicode="&#x201c;" horiz-adv-x="839" d="M166 1171v89q0 143 21.5 209.5t76.5 144.5h80q-51 -156 -51 -279v-164h-127zM494 1171v89q0 143 21.5 209.5t76.5 144.5h80q-51 -156 -51 -279v-164h-127z" />
<glyph unicode="&#x201d;" horiz-adv-x="839" d="M168 1171q51 156 51 279v164h127v-88q0 -143 -21.5 -210t-76.5 -145h-80zM496 1171q51 156 51 279v164h127v-88q0 -143 -21.5 -210t-77.5 -145h-79z" />
<glyph unicode="&#x201e;" horiz-adv-x="833" d="M145 -279q51 156 52 279v164h127v-88q0 -143 -21.5 -210t-77.5 -145h-80zM473 -279q51 156 51 279v164h127v-88q0 -143 -21.5 -210t-76.5 -145h-80z" />
<glyph unicode="&#x2022;" horiz-adv-x="1024" d="M162 647l354 406l346 -418l-344 -406z" />
<glyph unicode="&#x2026;" horiz-adv-x="2048" d="M340 0v168h127v-168h-127zM961 0v168h126v-168h-126zM1581 0v168h127v-168h-127z" />
<glyph unicode="&#x2039;" horiz-adv-x="561" d="M117 424v137l311 309v-153l-227 -225l227 -226v-153z" />
<glyph unicode="&#x203a;" horiz-adv-x="561" d="M133 115v151l227 226l-227 225v151l311 -309v-137z" />
<glyph unicode="&#x2122;" horiz-adv-x="1720" d="M72 1532v78h510v-78h-211v-727h-88v727h-211zM772 805v805h105l280 -439l262 439h107v-805h-82v665l-270 -403h-44l-278 406v-668h-80z" />
<glyph unicode="&#xe000;" horiz-adv-x="960" d="M0 960h960v-960h-960v960z" />
<glyph unicode="&#xfb01;" horiz-adv-x="1099" d="M66 862v96h159v400q0 90 21.5 144t71 78t93.5 29t126 5v-92q-47 0 -65.5 -1t-48.5 -5.5t-40 -15.5t-23.5 -31.5t-16.5 -51.5t-3 -76v-383h440h94v-958h-110v862h-424v-862h-115v862h-159zM764 1184v239h110v-239h-110z" />
<glyph unicode="&#xfb02;" horiz-adv-x="1181" d="M66 862v96h159v400q0 90 21.5 144t71 78t93.5 29t126 5v-92q-47 0 -65.5 -1t-48.5 -5.5t-40 -15.5t-23.5 -31.5t-16.5 -51.5t-3 -76v-383h195v-96h-195v-862h-115v862h-159zM846 0v1612h110v-1612h-110z" />
<glyph unicode="&#xfb03;" horiz-adv-x="1753" d="M66 862v96h159v400q0 74 16.5 123t40 75.5t69.5 40t82 15.5t102 2v-92q-47 0 -65.5 -1t-48.5 -5.5t-40 -15.5t-23.5 -31.5t-16.5 -51.5t-3 -76v-383h194v-96h-194v-862h-113v862h-159zM662 862v96h159v400q0 74 16.5 123t40 75.5t69.5 40t82 15.5t101 2v-92q-47 0 -65 -1 t-48 -5.5t-40 -15.5t-23.5 -31.5t-16.5 -51.5t-3 -76v-383h194v-96h-194v-862h-113v862h-159zM1417 0v958h111v-958h-111zM1417 1184v239h111v-239h-111z" />
<glyph unicode="&#xfb04;" horiz-adv-x="1753" d="M66 862v96h159v400q0 74 16.5 123t40 75.5t69.5 40t82 15.5t102 2v-92q-47 0 -65.5 -1t-48.5 -5.5t-40 -15.5t-23.5 -31.5t-16.5 -51.5t-3 -76v-383h194v-96h-194v-862h-113v862h-159zM662 862v96h159v400q0 74 16.5 123t40 75.5t69.5 40t82 15.5t101 2v-92q-47 0 -65 -1 t-48 -5.5t-40 -15.5t-23.5 -31.5t-16.5 -51.5t-3 -76v-383h194v-96h-194v-862h-113v862h-159zM1417 0v1610h111v-1610h-111z" />
</font>
</defs>
</svg>
