<?xml version="1.0" standalone="no"?>
<!DOCTYPE svg PUBLIC "-//W3C//DTD SVG 1.1//EN" "http://www.w3.org/Graphics/SVG/1.1/DTD/svg11.dtd" >
<svg xmlns="http://www.w3.org/2000/svg">
<metadata>
This is a custom SVG webfont generated by Font Squirrel.
Copyright   : Version 10 created on 061194Copr1994 by Dutch Type Library URW
Foundry     : Version   created on   Copr by Dutch Type Library URW
</metadata>
<defs>
<font id="DTLNobelTBold" horiz-adv-x="1024" >
<font-face units-per-em="2048" ascent="1638" descent="-410" />
<missing-glyph horiz-adv-x="409" />
<glyph unicode=" "  horiz-adv-x="409" />
<glyph unicode="&#x09;" horiz-adv-x="409" />
<glyph unicode="&#xa0;" horiz-adv-x="409" />
<glyph unicode="!" horiz-adv-x="614" d="M139 969v641h340v-641l-63 -555h-219zM164 0v291h285v-291h-285z" />
<glyph unicode="&#x22;" horiz-adv-x="935" d="M82 1610h332l-52 -506h-229zM512 1610h332l-51 -506h-230z" />
<glyph unicode="#" horiz-adv-x="1638" d="M0 403v213h295l123 320h-275v213h357l178 459h295l-178 -459h258l178 459h295l-178 -459h223v-213h-305l-125 -320h286v-213h-368l-156 -403h-293l156 403h-260l-156 -403h-293l156 403h-213zM588 616h260l123 320h-258z" />
<glyph unicode="$" horiz-adv-x="1433" d="M168 178l194 262q106 -113 248 -147v403l-94 49q-152 80 -239 197t-87 246q0 170 116 288.5t304 149.5v143h68v-135q18 2 55 2q27 0 41 -2v135h68v-139q195 -25 368 -151l-184 -250q-90 78 -184 102v-383l67 -33q369 -182 369 -454q0 -184 -112.5 -310t-323.5 -157v-209 h-68v201q-20 -2 -65 -2h-31v-199h-68v203q-203 14 -442 190zM543 1202q-1 -80 67 -131v248q-68 -39 -67 -117zM678 281q16 -2 49 -2t47 2v329l-96 52v-381zM678 1032l96 -49v363q-14 2 -41 2q-18 0 -55 -5v-311zM842 301q78 41 78 139q0 72 -78 131v-270z" />
<glyph unicode="&#x26;" horiz-adv-x="1617" d="M98 424q0 217 238 414l29 22l-52 62q-114 126 -114 277q0 196 119.5 313.5t308.5 117.5q197 0 300 -110.5t103 -278.5q0 -197 -178 -346l-72 -57l281 -289q47 43 90 139l223 -168q-66 -115 -117 -176l345 -348h-404l-127 131q-190 -158 -416 -158q-281 0 -419 132 t-138 323zM418 432q0 -90 69.5 -136t167.5 -46q119 0 213 82l-317 332l-31 -31q-102 -102 -102 -201zM502 1225q0 -80 65 -164l31 -39l39 35q90 82 90 174q0 53 -29.5 86t-83.5 33q-49 0 -80.5 -35t-31.5 -90z" />
<glyph unicode="'" horiz-adv-x="505" d="M88 1610h332l-51 -506h-230z" />
<glyph unicode="(" horiz-adv-x="724" d="M63 657q0 346 141.5 562.5t489.5 431.5v-293q-264 -211 -264 -690q0 -285 68.5 -464t199.5 -313v-278q-350 240 -492.5 477.5t-142.5 566.5z" />
<glyph unicode=")" horiz-adv-x="724" d="M27 -109q131 133 199.5 312.5t68.5 464.5q0 479 -264 690v293q348 -215 489.5 -431.5t141.5 -562.5q0 -330 -142.5 -567t-492.5 -477v278z" />
<glyph unicode="*" horiz-adv-x="905" d="M-10 1176l102 303l244 -129l-37 276h317l-36 -283l243 142l95 -301l-271 -62l189 -194l-256 -185l-129 240l-129 -233l-256 188l192 190z" />
<glyph unicode="+" horiz-adv-x="1124" d="M49 465v285h359v409h307v-409h358v-285h-358v-459h-307v459h-359z" />
<glyph unicode="," horiz-adv-x="512" d="M57 -231q84 100 84 233v289h305v-137q0 -201 -59 -328q-43 -90 -143 -186z" />
<glyph unicode="-" horiz-adv-x="641" d="M41 436v293h565v-293h-565z" />
<glyph unicode="." horiz-adv-x="512" d="M141 0v291h305v-291h-305z" />
<glyph unicode="/" horiz-adv-x="1138" d="M119 -2l620 1610h316l-623 -1608z" />
<glyph unicode="0" horiz-adv-x="1433" d="M117 817q0 391 151.5 602t442.5 211q299 0 446.5 -209t147.5 -604q0 -397 -149.5 -617t-444.5 -220q-293 0 -443.5 220t-150.5 617zM453 817q0 -276 77.5 -388t180.5 -112q106 0 184 112t78 388q0 264 -79 371.5t-183 107.5q-102 0 -180 -107.5t-78 -371.5z" />
<glyph unicode="1" horiz-adv-x="1433" d="M336 1071v252q176 43 268 107q35 25 79 69.5t71 77.5l26 33h242v-1610h-350v1178q-57 -31 -70 -37q-41 -16 -107.5 -33.5t-113.5 -26.5z" />
<glyph unicode="2" horiz-adv-x="1433" d="M78 0l600 717q4 4 28 31l40 46q16 19 42.5 54t45 66.5t37 68.5t28.5 76t10 74q0 82 -65.5 143t-161.5 61q-94 0 -153.5 -68.5t-59.5 -123.5v-94h-330v98q0 209 141.5 344t397.5 135q260 0 418.5 -115.5t158.5 -367.5q0 -111 -54 -235t-98 -184t-87 -110l-283 -323h586 v-293h-1241z" />
<glyph unicode="3" horiz-adv-x="1433" d="M125 145l172 238q168 -121 356 -121q119 0 206 58.5t87 150.5q0 98 -66.5 149.5t-226.5 51.5h-155v278h157q123 0 189.5 53.5t66.5 155.5q0 61 -24.5 100t-69.5 55.5t-82 21.5t-88 5q-145 0 -293 -118l-166 231q221 176 502 176q311 0 444.5 -124t133.5 -326 q0 -233 -172 -346q86 -51 142 -144.5t56 -216.5q0 -229 -166.5 -361t-474.5 -132q-313 0 -528 165z" />
<glyph unicode="4" horiz-adv-x="1433" d="M106 307v242l754 1061h234v-1014h219v-293h-219v-303h-324v307h-664zM406 596h366v502z" />
<glyph unicode="5" horiz-adv-x="1433" d="M150 172l188 258q57 -51 148.5 -97t185.5 -46q113 0 187.5 69.5t74.5 202.5q0 106 -69.5 178t-170.5 72q-98 0 -152.5 -22.5t-121.5 -108.5l-180 55l49 877h899v-293h-647l-13 -254q45 45 209 45q211 0 367 -141.5t156 -409.5q0 -262 -159 -419.5t-446 -157.5 q-154 0 -295 66.5t-210 125.5z" />
<glyph unicode="6" horiz-adv-x="1433" d="M121 612q0 256 84 428q6 14 19.5 40t61.5 105t103 154.5t147.5 177t194.5 187.5l205 -229q-78 -57 -198 -174t-185 -224q66 45 201 45q250 0 404.5 -149t154.5 -393q0 -272 -153.5 -436t-446.5 -164q-154 0 -274 62t-186.5 161.5t-99 204t-32.5 204.5zM449 575 q0 -123 81.5 -192.5t178.5 -69.5q117 0 190.5 73t73.5 192q0 115 -82 180t-189 65q-90 0 -171.5 -66.5t-81.5 -181.5z" />
<glyph unicode="7" horiz-adv-x="1433" d="M92 1325v285h1276l-862 -1610h-406l744 1325h-752z" />
<glyph unicode="8" horiz-adv-x="1433" d="M94 481q0 125 83 239t188 150q-74 35 -138.5 112t-64.5 183q0 201 159.5 321t405.5 120q256 0 401.5 -118t145.5 -323q0 -106 -62.5 -184t-136.5 -111q104 -37 182 -149.5t78 -239.5q0 -219 -169 -360t-443 -141t-451.5 142t-177.5 359zM455 502q0 -94 77.5 -156.5 t190.5 -62.5q133 0 200.5 60.5t67.5 158.5q0 84 -64.5 155.5t-203.5 71.5q-127 0 -197.5 -65.5t-70.5 -161.5zM520 1174q0 -94 62.5 -143.5t146.5 -49.5q88 0 145.5 53.5t57.5 139.5q0 70 -48 124t-155 54q-100 0 -154.5 -51.5t-54.5 -126.5z" />
<glyph unicode="9" horiz-adv-x="1433" d="M113 1036q0 268 166.5 431t433.5 163q158 0 276.5 -51t186 -140t101.5 -197.5t34 -235.5q0 -154 -58.5 -329t-171.5 -331q-63 -90 -194 -243.5t-166 -178.5l-234 189q82 72 197 200.5t182 239.5q-49 -61 -192 -61q-250 0 -405.5 164.5t-155.5 379.5zM449 1075 q0 -123 81.5 -192.5t178.5 -69.5q117 0 190.5 72.5t73.5 191.5q0 115 -82 180.5t-189 65.5q-90 0 -171.5 -66.5t-81.5 -181.5z" />
<glyph unicode=":" horiz-adv-x="512" d="M141 0v291h305v-291h-305zM141 672v291h305v-291h-305z" />
<glyph unicode=";" horiz-adv-x="512" d="M57 -231q84 100 84 233v289h305v-137q0 -201 -59 -328q-43 -90 -143 -186zM141 672v291h305v-291h-305z" />
<glyph unicode="&#x3c;" horiz-adv-x="1124" d="M111 506v225l819 508v-334l-518 -289l520 -290v-334z" />
<glyph unicode="=" horiz-adv-x="1124" d="M92 150v284h936v-284h-936zM92 606v285h936v-285h-936z" />
<glyph unicode="&#x3e;" horiz-adv-x="1124" d="M109 903v334l821 -514v-225l-819 -508v334l518 288z" />
<glyph unicode="?" horiz-adv-x="1069" d="M25 1415q215 197 495 197q61 0 118.5 -11.5t116 -39t101.5 -68.5t70.5 -108.5t27.5 -151.5q0 -178 -200 -404q-70 -80 -103 -168q-30 -81 -30 -221v-26h-304q0 135 12.5 216t26 110.5t52.5 101.5q23 43 84 122.5t101 147.5t40 117q0 57 -46 88t-108 31q-131 0 -280 -142z M328 0v291h284v-291h-284z" />
<glyph unicode="@" horiz-adv-x="2048" d="M98 696q0 252 124 465t337 337t465 124q424 0 676 -235.5t252 -649.5q0 -113 -39 -218t-81 -165.5t-112 -144.5h-295h-217v55q-143 -84 -288 -84q-166 0 -270.5 96.5t-104.5 245.5q0 162 143 258.5t371 96.5q82 0 149 -9v9q0 55 -56 93t-138 38q-117 0 -271 -95l-112 242 q205 102 432 102q199 0 313.5 -83.5t114.5 -262.5v-454h98q109 143 109 280q0 293 -179.5 476.5t-494.5 183.5q-276 0 -476 -209t-200 -492q0 -281 198.5 -481.5t477.5 -200.5h221v-245h-221q-383 0 -654.5 271t-271.5 656zM831 549q0 -51 39 -81t103 -30q122 0 235 70v172 q-20 2 -112 2q-106 0 -185.5 -32t-79.5 -101z" />
<glyph unicode="A" horiz-adv-x="1583" d="M0 0l788 1683l795 -1683h-383l-166 367h-485l-166 -367h-383zM647 627h281l-148 297z" />
<glyph unicode="B" horiz-adv-x="1568" d="M252 0v1610h520q606 0 606 -434q0 -109 -62.5 -204t-158.5 -122q117 -29 200 -135t83 -260q0 -88 -29 -167t-89 -144.5t-166.5 -104.5t-248.5 -39h-655zM612 307h232q243 0 243 172q0 100 -62 147.5t-204 47.5h-209v-367zM612 965h166q242 0 242 186q0 68 -60.5 118 t-183.5 50h-164v-354z" />
<glyph unicode="C" horiz-adv-x="1642" d="M80 805q0 352 237.5 586.5t587.5 234.5q428 0 617 -254l-228 -225q-45 74 -149.5 119t-235.5 45q-195 0 -333 -140.5t-138 -365.5q0 -227 132 -374.5t356 -147.5q279 0 407 235l246 -184q-223 -360 -670 -361q-367 0 -598 231.5t-231 600.5z" />
<glyph unicode="D" horiz-adv-x="1681" d="M252 0v1610h438q909 0 909 -834q0 -145 -48 -280.5t-142 -248t-253 -180t-359 -67.5h-545zM612 307h123q233 0 369.5 133.5t136.5 360.5q0 244 -135 380t-416 136h-78v-1010z" />
<glyph unicode="E" horiz-adv-x="1380" d="M252 0v1610h938v-293h-578v-350h512v-291h-512v-371h627v-305h-987z" />
<glyph unicode="F" horiz-adv-x="1236" d="M252 0v1610h897v-291h-537v-352h514v-291h-514v-676h-360z" />
<glyph unicode="G" horiz-adv-x="1757" d="M80 805q0 356 238.5 588.5t615.5 232.5q348 0 608 -215l-201 -272q-174 174 -423 174q-209 0 -344.5 -145.5t-135.5 -362.5q0 -236 142.5 -380t355.5 -144q129 0 234.5 59t156.5 184h-424v273h795q0 -365 -218 -594.5t-562 -229.5q-367 0 -602.5 231.5t-235.5 600.5z" />
<glyph unicode="H" horiz-adv-x="1794" d="M252 0v1610h360v-641h570v641h360v-1610h-360v678h-570v-678h-360z" />
<glyph unicode="I" horiz-adv-x="864" d="M252 0v1610h360v-1610h-360z" />
<glyph unicode="J" horiz-adv-x="976" d="M55 -20v305h95q139 0 197.5 58t58.5 187v1080h360v-1110q0 -250 -149.5 -385t-423.5 -135h-138z" />
<glyph unicode="K" horiz-adv-x="1617" d="M252 0v1610h360v-582l496 582h444l-637 -727l721 -883h-469l-499 612l-56 -65v-547h-360z" />
<glyph unicode="L" horiz-adv-x="1216" d="M252 0v1610h360v-1305h572v-305h-932z" />
<glyph unicode="M" horiz-adv-x="2119" d="M252 0v1665l819 -844l797 850v-1671h-363v868l-440 -481l-453 485v-872h-360z" />
<glyph unicode="N" horiz-adv-x="1882" d="M252 0v1655l1018 -934v889h360v-1649l-1016 940v-901h-362z" />
<glyph unicode="O" horiz-adv-x="1849" d="M80 800.5q0 354.5 237.5 590t608.5 235.5q373 0 608 -234.5t235 -590.5q0 -358 -232 -593t-611 -235q-371 0 -608.5 236.5t-237.5 591zM438 801q0 -219 134.5 -368.5t353.5 -149.5q223 0 354 148.5t131 369.5q0 219 -131 365.5t-354 146.5q-219 0 -353.5 -147.5 t-134.5 -364.5z" />
<glyph unicode="P" horiz-adv-x="1392" d="M252 0v1610h532q291 0 445.5 -133.5t154.5 -346.5q0 -227 -167.5 -377.5t-409.5 -150.5h-195v-602h-360zM612 909h150q141 0 201.5 56.5t60.5 162.5q0 188 -264 189h-148v-408z" />
<glyph unicode="Q" horiz-adv-x="1849" d="M80 801q0 354 237.5 589.5t608.5 235.5q373 0 608 -234.5t235 -590.5q0 -336 -208 -568q104 -54 256 -79l-170 -189q-178 20 -310 101q-184 -92 -411 -93q-381 0 -613.5 234.5t-232.5 593.5zM438 801q0 -221 131 -369.5t357 -148.5q74 0 149 20q-53 74 -88 156l201 164 q47 -102 106 -174q117 141 117 352q0 217 -133 364.5t-352 147.5t-353.5 -147.5t-134.5 -364.5z" />
<glyph unicode="R" horiz-adv-x="1574" d="M252 0v1610h539q266 0 429.5 -122t163.5 -355q0 -184 -96 -297t-237 -144l514 -692h-457l-496 754v-754h-360zM612 909h168q131 0 186.5 64.5t55.5 154.5q0 82 -59.5 135.5t-184.5 53.5h-166v-408z" />
<glyph unicode="S" horiz-adv-x="1275" d="M51 170l199 270q208 -161 383 -161h2q188 0 188 161q0 96 -116 158l-283 147q-326 172 -326 443q0 199 154 323.5t389 124.5q297 0 498 -147l-185 -260q-137 119 -313 119q-82 0 -133 -38t-51 -108q0 -66 32.5 -102.5t106.5 -73.5l221 -111q168 -84 268.5 -190 t100.5 -264q0 -213 -146.5 -345t-423.5 -132q-324 0 -565 186z" />
<glyph unicode="T" horiz-adv-x="1150" d="M61 1317v293h1029v-293h-334v-1317h-361v1317h-334z" />
<glyph unicode="U" horiz-adv-x="1771" d="M231 625v958h361v-930q0 -186 70.5 -271t232.5 -85q158 0 221.5 84t63.5 272v930h360v-958q0 -133 -36 -246t-109.5 -205t-202.5 -144.5t-299 -52.5q-334 0 -498 179.5t-164 468.5z" />
<glyph unicode="V" horiz-adv-x="1400" d="M-12 1620h360l344 -868l344 868h363l-707 -1739z" />
<glyph unicode="W" horiz-adv-x="2072" d="M0 1620h362l283 -891l393 963l394 -949l280 877h363l-602 -1747l-437 1004l-432 -1004z" />
<glyph unicode="X" horiz-adv-x="1511" d="M-45 0l573 854l-512 766h447l285 -453l292 453h437l-506 -760l577 -860h-444l-354 549l-353 -549h-442z" />
<glyph unicode="Y" horiz-adv-x="1327" d="M-45 1620h379l328 -539l327 539h379l-524 -879v-741h-363v743z" />
<glyph unicode="Z" horiz-adv-x="1478" d="M14 2l840 1315h-725v291h1319l-819 -1303h770v-303h-1385z" />
<glyph unicode="[" horiz-adv-x="942" d="M133 -385v1993h698v-267h-376v-1458h383v-268h-705z" />
<glyph unicode="\" horiz-adv-x="1171" d="M119 -2l620 1610h316l-623 -1608z" />
<glyph unicode="]" horiz-adv-x="942" d="M117 -117h383v1458h-377v267h698v-1993h-704v268z" />
<glyph unicode="^" horiz-adv-x="1638" d="M154 786l616 822h143l611 -820h-242l-442 580l-445 -582h-241z" />
<glyph unicode="_" d="M0 -109h1026v-284h-1026v284z" />
<glyph unicode="`" horiz-adv-x="1417" d="M272 2079h322l258 -375h-322z" />
<glyph unicode="a" horiz-adv-x="1187" d="M74 266q0 209 262 307q76 29 172 37q55 5 97 5q32 0 57 -3l57 -6v33q0 131 -227 131q-139 0 -259 -74l-98 209q63 35 181 58.5t223 23.5q260 0 388 -78t128 -258v-651h-338v76q-141 -94 -322 -94q-147 0 -234 76.5t-87 207.5zM397 305q0 -98 113 -98q123 0 205 49v182 q-317 0 -318 -133z" />
<glyph unicode="b" horiz-adv-x="1230" d="M131 0v1610h340v-729q86 102 262 102q82 0 155 -23.5t144.5 -78t114.5 -163.5t43 -261q0 -78 -23.5 -156t-74 -155.5t-145.5 -126t-220 -48.5q-166 0 -262 105v-76h-334zM459 492q0 -113 48 -181.5t140 -68.5q90 0 141.5 64.5t51.5 166.5q0 104 -49.5 174t-139.5 70 q-92 0 -142 -61.5t-50 -163.5z" />
<glyph unicode="c" horiz-adv-x="1040" d="M41 477q0 223 140.5 370.5t384 147.5t397.5 -153l-226 -224q-63 94 -161 95h-2q-97 0 -158 -59q-62 -60 -62 -160q0 -119 61.5 -183.5t153.5 -64.5q119 0 172 108l250 -174q-143 -211 -434 -211q-231 0 -373.5 140.5t-142.5 367.5z" />
<glyph unicode="d" horiz-adv-x="1230" d="M41 457q0 152 43 261t114.5 163.5t144.5 78t155 23.5q176 0 262 -102v729h340v-1610h-334v76q-96 -104 -262 -105q-125 0 -220.5 48.5t-145.5 126t-73.5 155.5t-23.5 156zM391 473q0 -102 51.5 -166.5t141.5 -64.5q92 0 140 68.5t48 181.5q0 102 -50 163.5t-142 61.5 q-90 0 -139.5 -69.5t-49.5 -174.5z" />
<glyph unicode="e" horiz-adv-x="1146" d="M41 477q0 231 147.5 374.5t378.5 143.5q229 0 367.5 -158.5t138.5 -416.5h-708q8 -74 53 -123t98 -67.5t113 -18.5q92 0 158.5 23.5t132.5 91.5l145 -193q-129 -98 -227.5 -131t-253.5 -33q-238 0 -390.5 135.5t-152.5 372.5zM367 600h358q-16 72 -67.5 124t-125.5 52 q-68 0 -112.5 -50t-52.5 -126z" />
<glyph unicode="f" horiz-adv-x="716" d="M51 709v252h121v329q0 164 89 240t235 76h145v-297q-78 0 -101.5 -30t-23.5 -93v-225h125v-256h-129v-705h-340v709h-121z" />
<glyph unicode="g" horiz-adv-x="1228" d="M41 506q0 88 26.5 170t80 152.5t146.5 112.5t216 42q150 0 250 -100v78h340v-871q0 -63 -2 -104t-11.5 -105.5t-26 -106.5t-50 -91.5t-80.5 -78t-121 -48t-166 -19.5q-268 0 -549 123l133 227q70 -39 175.5 -67.5t185.5 -28.5q121 0 157 74q32 64 32 177q0 18 -1 38 q-45 -45 -114.5 -77t-137.5 -32q-135 0 -233 45t-150.5 125t-76 169t-23.5 196zM391 473q0 -102 51.5 -166.5t141.5 -64.5q92 0 140 68.5t48 181.5q0 102 -50 163.5t-142 61.5q-90 0 -139.5 -69.5t-49.5 -174.5z" />
<glyph unicode="h" horiz-adv-x="1220" d="M131 0v1612h340v-729q43 47 120 73.5t146 26.5q164 0 259.5 -93t95.5 -267v-623h-340v563q0 82 -41 119t-102.5 37t-99.5 -40t-38 -114v-565h-340z" />
<glyph unicode="i" horiz-adv-x="600" d="M131 0v961h340v-961h-340zM131 1126v312h340v-312h-340z" />
<glyph unicode="j" horiz-adv-x="600" d="M-14 -61q86 0 115.5 21.5t29.5 96.5v904h340v-928q0 -197 -92 -298.5t-250 -101.5h-143v306zM131 1126v306h340v-306h-340z" />
<glyph unicode="k" horiz-adv-x="1224" d="M131 0v1612h342v-991l326 340h411l-362 -367l330 -594h-412l-174 332l-119 -115v-217h-342z" />
<glyph unicode="l" horiz-adv-x="600" d="M131 0v1614h340v-1614h-340z" />
<glyph unicode="m" horiz-adv-x="1830" d="M131 0v961h340v-76q39 45 121 71.5t162 26.5q221 0 299 -127q98 125 311 125q41 0 80 -7t87 -30.5t85 -61.5t61.5 -109t24.5 -165v-608h-340v563q0 80 -40 118t-95 38q-145 0 -146 -154v-565h-329v561q0 66 -32 112t-104 46q-145 0 -145 -158v-561h-340z" />
<glyph unicode="n" horiz-adv-x="1220" d="M131 0v961h340v-76q35 39 110.5 68.5t149.5 29.5q162 0 261.5 -89t99.5 -269v-625h-340v549q0 170 -134 170q-147 0 -147 -168v-551h-340z" />
<glyph unicode="o" horiz-adv-x="1107" d="M41 479q0 213 144.5 360.5t369.5 147.5q227 0 370.5 -147.5t143.5 -360.5t-143.5 -360.5t-370.5 -147.5q-225 0 -369.5 147.5t-144.5 360.5zM365 479q0 -94 51 -159.5t139 -65.5t139 65.5t51 159.5t-51 160t-139 66t-139 -66t-51 -160z" />
<glyph unicode="p" horiz-adv-x="1230" d="M131 -465v1426h334v-76q96 104 262 104q125 0 220 -48t145.5 -126t74 -155.5t23.5 -155.5q0 -152 -43 -261.5t-114.5 -163.5t-144.5 -78t-155 -24q-176 0 -262 103v-545h-340zM459 469q0 -102 50 -163.5t142 -61.5q90 0 139.5 69.5t49.5 173.5q0 102 -51.5 167t-141.5 65 q-92 0 -140 -68.5t-48 -181.5z" />
<glyph unicode="q" horiz-adv-x="1230" d="M41 506q0 78 23.5 155.5t73.5 155.5t145.5 126t220.5 48q166 0 262 -104v76h334v-1426h-340v545q-86 -102 -262 -102q-82 0 -155 23.5t-144.5 77.5t-114.5 163.5t-43 261.5zM391 489q0 -104 49 -173.5t140 -69.5q92 0 142 61.5t50 163.5q0 113 -48 181.5t-140 68.5 q-90 0 -141.5 -64.5t-51.5 -167.5z" />
<glyph unicode="r" horiz-adv-x="929" d="M131 0v961h340v-117q35 68 103.5 103.5t119.5 35.5q80 0 123 -15.5t90 -60.5l-180 -313q-43 78 -139 78q-45 0 -81 -36t-36 -95v-541h-340z" />
<glyph unicode="s" horiz-adv-x="983" d="M66 80l122 242q66 -53 149 -78t130 -25q78 0 78 47q0 41 -60 76l-141 76q-39 20 -78 49t-84 90t-45 127q0 154 106.5 226.5t260.5 72.5q195 0 366 -70l-116 -233q-98 84 -224 84q-51 0 -51 -45q0 -41 68 -78l135 -76q221 -123 221 -307q0 -127 -100.5 -208t-278.5 -81 q-291 0 -458 111z" />
<glyph unicode="t" horiz-adv-x="735" d="M27 709v252h147v380h334v-380h194v-256h-190v-248q0 -111 22.5 -137.5t127.5 -26.5h24v-293h-160q-184 0 -269 86t-85 295v328h-145z" />
<glyph unicode="u" horiz-adv-x="1222" d="M131 365v596h340v-506q0 -106 25.5 -160.5t107.5 -54.5q80 0 114 55t34 180v486h340v-961h-326v82q-31 -37 -112 -71t-142 -34t-119.5 16.5t-121 54.5t-101.5 120t-39 197z" />
<glyph unicode="v" horiz-adv-x="1028" d="M2 961h342l170 -465l170 465h346l-514 -1088z" />
<glyph unicode="w" horiz-adv-x="1564" d="M-2 961h367l196 -472l230 547l217 -547l194 472h363l-437 -961h-184l-166 410l-176 -410h-182z" />
<glyph unicode="x" horiz-adv-x="1069" d="M-8 0l362 504l-331 457h366l143 -211l144 211h356l-321 -463l356 -498h-389l-150 229l-157 -229h-379z" />
<glyph unicode="y" horiz-adv-x="1005" d="M35 961h346l143 -570l148 570h332l-338 -1065q-96 -307 -330 -308q-88 0 -250 41l70 267q70 -37 123 -37q77 0 77 61q0 22 -10 51z" />
<glyph unicode="z" horiz-adv-x="1118" d="M33 0l475 670h-375v291h952l-448 -670h395v-291h-999z" />
<glyph unicode="{" d="M172 487v213h82q49 0 80 13.5t44 44t16 58.5t3 77v348q0 367 451 367h104v-178h-69q-59 0 -95 -14.5t-50.5 -49.5t-16.5 -59.5t-2 -79.5v-303q0 -268 -256 -338q131 -45 193.5 -130t62.5 -225v-260q0 -53 2 -79.5t15.5 -60.5t50 -48t96.5 -14h69v-179h-104 q-451 0 -451 367v313q0 53 -3 84t-16 66t-44 51t-80 16h-82z" />
<glyph unicode="|" d="M354 -440v2109h312v-2109h-312z" />
<glyph unicode="}" d="M72 1430v178h104q451 0 451 -367v-348q0 -49 3 -77t16 -58.5t44 -44t80 -13.5h82v-213h-82q-49 0 -80 -16t-44 -51t-16 -65.5t-3 -84.5v-313q0 -367 -451 -367h-104v179h69q59 0 96 14t50.5 48t15.5 60.5t2 79.5v260q0 139 62.5 224.5t193.5 130.5q-256 70 -256 338v303 q0 55 -2 79.5t-16.5 59.5t-50 49.5t-95.5 14.5h-69z" />
<glyph unicode="~" horiz-adv-x="1124" d="M25 422q6 145 88 261t182 116q82 0 241.5 -49.5t208.5 -49.5h11h11q3 0 11 1t13 3l11 7q7 4 11 11l9 16q5 10 8.5 22t5.5 28h264q-6 -145 -88 -260.5t-183 -115.5q-74 0 -255 49t-195 49h-11h-11q-3 0 -11 -1t-12 -3l-12 -6q-7 -4 -11 -12l-9 -16q-5 -9 -8 -21.5 t-5 -28.5h-264z" />
<glyph unicode="&#xa1;" horiz-adv-x="614" d="M139 231l58 596h219l63 -596v-641h-340v641zM164 909v291h285v-291h-285z" />
<glyph unicode="&#xa2;" horiz-adv-x="1433" d="M164 578q0 94 28.5 190t89 189.5t172 159t259.5 77.5v207h108v-203q154 -4 245 -46t196 -138l-263 -266q-76 104 -178 112v-559q63 8 108.5 40t59.5 60l15 29l296 -207q-147 -229 -479 -250v-188h-108v188q-250 14 -399.5 188.5t-149.5 416.5zM541 598q0 -104 46 -183 t126 -106v539q-172 -47 -172 -250z" />
<glyph unicode="&#xa3;" horiz-adv-x="1433" d="M6 213q0 84 43 137t91 69.5t102 16.5q70 0 140.5 -19.5t102.5 -39.5q16 43 17 119q0 49 -47 94h-426v102h348l-107 117h-241v102h155q-94 127 -94 275q0 111 54.5 197.5t144.5 139t196.5 79t219.5 26.5q252 0 395 -98t143 -301v-33h-309v29q0 166 -234 166 q-31 0 -60.5 -5.5t-77.5 -21.5t-77.5 -61.5t-29.5 -112.5q0 -76 34.5 -137.5t104.5 -141.5h487v-102h-397q47 -61 72 -117h325v-102h-295q8 -53 9 -78q0 -111 -62 -197q96 -45 217 -45q57 0 86 30t29 79q0 53 -8 84h270q51 -94 51 -178q0 -145 -129 -222t-303 -77 q-111 0 -216 38.5t-169 94.5q-51 -59 -133 -98t-156 -39q-131 0 -198.5 75.5t-67.5 155.5zM209 223q0 -25 16.5 -40t32.5 -17l16 -2q41 0 85.5 24.5t62.5 53.5q-57 43 -143 43q-70 0 -70 -62z" />
<glyph unicode="&#xa4;" d="M31 1382l116 119l164 -176q96 68 213 68q102 0 189 -60l172 170l114 -117l-178 -178q45 -80 45 -174q0 -106 -63 -192l176 -174l-115 -119l-186 184q-78 -41 -170 -41t-166 45l-180 -180l-115 117l176 178q-57 90 -57 199q0 84 39 155zM332 1046.5q0 -75.5 52 -132 t128 -56.5t132 52.5t56 128t-52 132t-128 56.5t-132 -52.5t-56 -128z" />
<glyph unicode="&#xa5;" horiz-adv-x="1433" d="M16 1620h379l328 -539l328 539h379l-525 -879v-96h348v-102h-348v-117h348v-102h-348v-324h-362v324h-342v102h342v117h-342v102h342v98z" />
<glyph unicode="&#xa6;" d="M354 354h312v-794h-312v794zM354 874v795h312v-795h-312z" />
<glyph unicode="&#xa7;" horiz-adv-x="1351" d="M41 676q0 199 252 346q-109 113 -109 205q0 193 162 298t420 105q207 0 428 -112l-121 -267q-39 45 -132 80t-175 35q-254 0 -254 -100q0 -18 6 -33.5t18.5 -28t22.5 -21.5t31 -17l30 -13q9 -4 29.5 -11t22.5 -7l225 -72l72 -23q22 -8 74.5 -30.5t80 -43t67.5 -56.5 t61.5 -76.5t37 -99t15.5 -128.5q0 -186 -244 -325q98 -88 98 -205q0 -197 -161.5 -300.5t-417.5 -103.5q-227 0 -424 115l114 252l23 -12q63 -35 95 -50.5t83 -27.5t109 -12q251 0 251 99q0 17 -4 31.5t-11 25.5t-15 20.5t-21.5 17.5t-21.5 13.5t-24.5 10.5t-22.5 7t-20.5 6 t-16.5 4l-225 68q-86 27 -151 57.5t-127 80.5t-96 125t-34 173zM358 674q0 -47 31 -76t146 -68l280 -92q66 18 118 64.5t52 107.5q0 35 -7 56.5t-47 51.5t-118 58l-283 88q-55 -25 -113.5 -78t-58.5 -112z" />
<glyph unicode="&#xa8;" horiz-adv-x="1417" d="M301 1710v291h285v-291h-285zM717 1710v291h284v-291h-284z" />
<glyph unicode="&#xa9;" horiz-adv-x="1376" d="M121 1058.5q0 235.5 166 401.5t401.5 166t401 -166t165.5 -401.5t-165.5 -401t-401 -165.5t-401.5 165.5t-166 401zM274 1059q0 -172 123 -303t291 -131t291 131t123 303t-123 303t-291 131t-291 -131t-123 -303zM420 1061q0 129 77.5 212t196.5 83q121 0 219 -103 l-88 -104q-61 72 -135 72q-57 0 -93 -44t-36 -116q0 -70 39 -118t102 -48q66 0 125 92l105 -76q-74 -149 -234 -149h-2q-127 0 -201.5 82t-74.5 217z" />
<glyph unicode="&#xaa;" horiz-adv-x="1052" d="M98 1030q0 180 224 262q91 34 213 34q38 0 79 -3v6q0 86 -161 86q-104 0 -213 -67l-97 204q152 74 346 74q217 0 325 -67.5t108 -219.5v-540h-308v47q-104 -61 -239 -62q-127 0 -202 67t-75 179zM395 1061q0 -59 72 -60q84 0 145 33v115q-45 0 -74.5 -2t-66.5 -10.5 t-56.5 -26.5t-19.5 -49z" />
<glyph unicode="&#xab;" d="M59 367v256l394 233v-262l-193 -109l195 -90v-266zM571 367v256l394 233v-262l-193 -109l195 -90v-266z" />
<glyph unicode="&#xac;" horiz-adv-x="1124" d="M131 631v284h881v-559h-287v275h-594z" />
<glyph unicode="&#xad;" horiz-adv-x="641" d="M41 436v293h565v-293h-565z" />
<glyph unicode="&#xae;" horiz-adv-x="1376" d="M121 1058.5q0 235.5 166 401.5t401.5 166t401 -166t165.5 -401.5t-165.5 -401t-401 -165.5t-401.5 165.5t-166 401zM274 1059q0 -172 123 -303t291 -131t291 131t123 303t-123 303t-291 131t-291 -131t-123 -303zM494 791v546h200q78 0 129 -43t51 -125q0 -61 -33.5 -107 t-88.5 -58l186 -213h-178l-135 170v-170h-131zM623 1100h41q75 0 75 74q0 14 -3 23t-21.5 16.5t-52.5 7.5h-39v-121z" />
<glyph unicode="&#xaf;" d="M184 1069l281 354h217l272 -354h-290l-91 145l-90 -145h-299z" />
<glyph unicode="&#xb0;" horiz-adv-x="634" d="M70 1188q0 96 72.5 165.5t176.5 69.5q109 0 177.5 -66.5t68.5 -169t-71.5 -169t-180.5 -66.5q-117 0 -180 65.5t-63 170.5zM170 1188q0 -68 41 -109t106.5 -41t105.5 42t40 108q0 63 -41 105t-104.5 42t-105.5 -43t-42 -104z" />
<glyph unicode="&#xb1;" horiz-adv-x="1124" d="M162 0v113h801v-113h-801zM164 539v112h338v340h112v-340h342v-112h-342v-340h-112v340h-338z" />
<glyph unicode="&#xb2;" d="M170 958l348 349q92 92 92 133q0 43 -21.5 61.5t-72.5 18.5q-57 0 -88 -34t-31 -69v-45h-172v66q0 92 80 156.5t209 64.5q297 0 297 -195q0 -113 -143 -233l-131 -113h301v-160h-668z" />
<glyph unicode="&#xb3;" d="M203 1022l102 127q74 -80 203 -80q51 0 83 22.5t32 65.5q0 33 -30 54.5t-85 21.5h-113v110h113q39 0 64.5 28t25.5 63q0 73 -110 73h-3q-68 0 -129 -92l-116 86q111 137 284 137q268 0 269 -198q0 -41 -30 -80t-65 -51q47 -12 83 -56.5t36 -95.5q0 -98 -81 -157.5 t-228 -59.5q-156 0 -305 82z" />
<glyph unicode="&#xb4;" horiz-adv-x="1642" d="M387 1069l258 375h328l-258 -375h-328z" />
<glyph unicode="&#xb5;" horiz-adv-x="1107" d="M53 825v45h25q25 0 59.5 -2t59.5 -2q20 0 51 2t51 2h27v-585q0 -94 43 -138.5t141 -44.5q111 0 203 58v493q0 113 -18.5 142.5t-88.5 29.5h-18v45h28q23 0 58 -2t57 -2q20 0 51 2t52 2h28v-591q0 -119 19.5 -160t66.5 -41q14 0 26.5 2t19.5 5t16.5 10t12.5 10l13 17 q11 13 15 17h36q-43 -182 -225 -182q-68 0 -99.5 42t-49.5 114q-43 -43 -125 -88t-174 -45q-117 0 -172 61v-57q0 -59 28.5 -151.5t28.5 -123.5q0 -125 -90 -125q-82 0 -82 125q0 31 24.5 123t24.5 152v669q0 111 -19.5 141.5t-88.5 30.5h-15z" />
<glyph unicode="&#xb6;" horiz-adv-x="1560" d="M16 799q0 344 249 576.5t595 232.5h602v-189h-602v-1235h600v-188h-614q-342 0 -586 230.5t-244 572.5zM1081 307v981h193v-981h-193z" />
<glyph unicode="&#xb7;" d="M319 649l213 244l207 -252l-207 -244z" />
<glyph unicode="&#xb8;" d="M336 1315q0 102 69.5 175t167.5 73q100 0 171 -72t71 -172q0 -104 -68.5 -177t-169 -73t-171 70.5t-70.5 175.5zM455 1317q0 -53 42 -88t78 -35q47 0 84 37t37 84t-32.5 85t-88.5 38q-51 0 -85.5 -35t-34.5 -86z" />
<glyph unicode="&#xb9;" d="M287 1358v149q162 12 229 115h143v-664h-194v445q-80 -41 -178 -45z" />
<glyph unicode="&#xba;" horiz-adv-x="1097" d="M119 1202q0 178 120.5 301t309.5 123q190 0 310 -123t120 -301t-120 -301t-310 -123q-188 0 -309 123t-121 301zM416 1202.5q0 -67.5 35.5 -115t97 -47.5t97.5 47.5t36 115t-36 114.5t-97.5 47t-97 -47t-35.5 -114.5z" />
<glyph unicode="&#xbb;" d="M49 588v266l395 -238v-256l-393 -233v262l193 109zM561 588v266l395 -238v-256l-393 -233v262l193 109z" />
<glyph unicode="&#xbc;" horiz-adv-x="1433" d="M199 764v115h1018v-115h-1018zM336 121v125l416 438h116v-408h123v-157h-123v-119h-184v121h-348zM469 1356v149q162 12 229 115h144v-664h-195v445q-80 -41 -178 -45zM479 268h205v215z" />
<glyph unicode="&#xbd;" horiz-adv-x="1433" d="M199 764v115h1018v-115h-1018zM356 0l349 348q92 92 92 133q0 43 -21.5 61.5t-73.5 18.5q-57 0 -87.5 -33.5t-30.5 -68.5v-45h-172v65q0 92 79.5 156.5t208.5 64.5q297 0 297 -194q0 -113 -143 -234l-131 -112h301v-160h-668zM449 1356v149q162 12 229 115h143v-664h-194 v445q-80 -41 -178 -45z" />
<glyph unicode="&#xbe;" horiz-adv-x="1433" d="M199 764v115h1018v-115h-1018zM336 121v125l416 438h116v-408h123v-157h-123v-119h-184v121h-348zM387 1022l102 127q74 -80 203 -80q51 0 83 22.5t32 65.5q0 33 -29.5 54.5t-85.5 21.5h-112v110h112q39 0 64.5 28t25.5 63q0 73 -109 73h-3q-68 0 -129 -92l-117 86 q111 137 285 137q268 0 268 -198q0 -39 -29.5 -79t-64.5 -52q47 -12 82.5 -56.5t35.5 -95.5q0 -98 -80.5 -157.5t-228.5 -59.5q-156 0 -305 82zM479 268h205v215z" />
<glyph unicode="&#xbf;" horiz-adv-x="1069" d="M74 -29q0 178 200 404q135 156 134 456h303q0 -195 -20.5 -285.5t-69.5 -183.5q-23 -43 -84.5 -122.5t-101.5 -147t-40 -117.5q0 -57 46 -87.5t108 -30.5q131 0 280 141l175 -209q-215 -197 -496 -197q-61 0 -118.5 11.5t-116 39t-101.5 68.5t-70.5 108.5t-27.5 151.5z M416 913v291h284v-291h-284z" />
<glyph unicode="&#xc0;" horiz-adv-x="1583" d="M0 0l788 1683l795 -1683h-383l-166 367h-485l-166 -367h-383zM436 2079h322l258 -375h-322zM647 627h281l-148 297z" />
<glyph unicode="&#xc1;" horiz-adv-x="1583" d="M0 0l788 1683l795 -1683h-383l-166 367h-485l-166 -367h-383zM573 1683l258 375h328l-258 -375h-328zM647 627h281l-148 297z" />
<glyph unicode="&#xc2;" horiz-adv-x="1583" d="M0 0l788 1683l795 -1683h-383l-166 367h-485l-166 -367h-383zM399 1737l281 354h217l272 -354h-290l-91 145l-90 -145h-299zM647 627h281l-148 297z" />
<glyph unicode="&#xc3;" horiz-adv-x="1583" d="M0 0l788 1683l795 -1683h-383l-166 367h-485l-166 -367h-383zM426 1683q0 94 52 171t140 77q53 0 164 -43t133 -43q29 0 45.5 28t18.5 58h178q0 -117 -49 -179t-143 -62q-43 0 -150.5 41t-140.5 41q-18 0 -27.5 -4.5t-20 -24t-16.5 -60.5h-184zM647 627h281l-148 297z " />
<glyph unicode="&#xc4;" horiz-adv-x="1583" d="M0 0l788 1683l795 -1683h-383l-166 367h-485l-166 -367h-383zM424 1710v291h285v-291h-285zM647 627h281l-148 297zM840 1710v291h284v-291h-284z" />
<glyph unicode="&#xc5;" horiz-adv-x="1583" d="M0 0l788 1683l795 -1683h-383l-166 367h-485l-166 -367h-383zM528 1954q0 102 70 175t168 73q100 0 171 -72t71 -172q0 -104 -69 -177t-169 -73t-171 70.5t-71 175.5zM647 627h281l-148 297zM647 1956q0 -53 42 -88t79 -35q47 0 84 37t37 84t-33 85t-88 38q-51 0 -86 -35 t-35 -86z" />
<glyph unicode="&#xc6;" horiz-adv-x="2088" d="M-4 0l1032 1606h907v-293h-577v-350h512v-291h-512v-371h627v-301h-988v408h-348l-241 -408h-412zM813 688h184v309z" />
<glyph unicode="&#xc7;" horiz-adv-x="1613" d="M82 805q0 248 116.5 437.5t305 284.5t414.5 95q158 0 316.5 -60.5t274.5 -203.5l-219 -217q-88 100 -189.5 135t-230.5 35q-180 0 -307 -136.5t-127 -369.5q0 -225 132 -374.5t339 -149.5q57 0 96 5t97.5 25.5t117 73.5t115.5 135l238 -182q-57 -102 -140 -176 t-172.5 -112t-164 -54t-148.5 -21q49 -12 98.5 -59t49.5 -137q0 -76 -69 -129t-175 -53q-147 0 -256 57l33 90q84 -27 151 -31q18 -2 46 1t58.5 20.5t30.5 46.5q0 31 -17 50t-48 19t-54.5 -8t-34.5 -17t-34 -32l-72 78l117 109q-313 51 -500.5 271t-187.5 554z" />
<glyph unicode="&#xc8;" horiz-adv-x="1380" d="M252 0v1610h938v-293h-578v-350h512v-291h-512v-371h627v-305h-987zM293 2079h321l258 -375h-321z" />
<glyph unicode="&#xc9;" horiz-adv-x="1380" d="M252 0v1610h938v-293h-578v-350h512v-291h-512v-371h627v-305h-987zM467 1683l258 375h328l-258 -375h-328z" />
<glyph unicode="&#xca;" horiz-adv-x="1583" d="M252 0v1610h938v-293h-578v-350h512v-291h-512v-371h627v-305h-987zM303 1737l281 354h217l272 -354h-291l-90 145l-90 -145h-299z" />
<glyph unicode="&#xcb;" horiz-adv-x="1380" d="M252 0v1610h938v-293h-578v-350h512v-291h-512v-371h627v-305h-987zM371 1710v291h284v-291h-284zM786 1710v291h285v-291h-285z" />
<glyph unicode="&#xcc;" horiz-adv-x="864" d="M41 2079h321l259 -375h-322zM252 0v1610h360v-1610h-360z" />
<glyph unicode="&#xcd;" horiz-adv-x="864" d="M250 1683l258 375h328l-258 -375h-328zM252 0v1610h360v-1610h-360z" />
<glyph unicode="&#xce;" horiz-adv-x="864" d="M43 1737l281 354h217l272 -354h-291l-90 145l-90 -145h-299zM252 0v1610h360v-1610h-360z" />
<glyph unicode="&#xcf;" horiz-adv-x="864" d="M90 1690v290h285v-290h-285zM252 0v1610h360v-1610h-360zM506 1690v290h285v-290h-285z" />
<glyph unicode="&#xd0;" horiz-adv-x="1681" d="M18 725v172h234v713h438q909 0 909 -834q0 -145 -48 -280.5t-142 -248t-253 -180t-359 -67.5h-545v725h-234zM612 307h123q233 0 369.5 133.5t136.5 360.5q0 244 -135 380t-416 136h-78v-420h199v-172h-199v-418z" />
<glyph unicode="&#xd1;" horiz-adv-x="1882" d="M252 0v1655l1018 -934v889h360v-1649l-1016 940v-901h-362zM528 1683q0 94 52.5 171t140.5 77q53 0 163.5 -43t133.5 -43q29 0 45 28t18 58h179q0 -117 -49.5 -179t-143.5 -62q-43 0 -150.5 41t-140.5 41q-18 0 -27.5 -4.5t-19.5 -24t-16 -60.5h-185z" />
<glyph unicode="&#xd2;" horiz-adv-x="1849" d="M80 800.5q0 354.5 237.5 590t608.5 235.5q373 0 608 -234.5t235 -590.5q0 -358 -232 -593t-611 -235q-371 0 -608.5 236.5t-237.5 591zM272 2079h322l258 -375h-322zM438 801q0 -219 134.5 -368.5t353.5 -149.5q223 0 354 148.5t131 369.5q0 219 -131 365.5t-354 146.5 q-219 0 -353.5 -147.5t-134.5 -364.5z" />
<glyph unicode="&#xd3;" horiz-adv-x="1849" d="M80 800.5q0 354.5 237.5 590t608.5 235.5q373 0 608 -234.5t235 -590.5q0 -358 -232 -593t-611 -235q-371 0 -608.5 236.5t-237.5 591zM438 801q0 -219 134.5 -368.5t353.5 -149.5q223 0 354 148.5t131 369.5q0 219 -131 365.5t-354 146.5q-219 0 -353.5 -147.5 t-134.5 -364.5zM707 1683l258 375h327l-258 -375h-327z" />
<glyph unicode="&#xd4;" horiz-adv-x="1849" d="M80 800.5q0 354.5 237.5 590t608.5 235.5q373 0 608 -234.5t235 -590.5q0 -358 -232 -593t-611 -235q-371 0 -608.5 236.5t-237.5 591zM438 801q0 -219 134.5 -368.5t353.5 -149.5q223 0 354 148.5t131 369.5q0 219 -131 365.5t-354 146.5q-219 0 -353.5 -147.5 t-134.5 -364.5zM539 1737l280 354h217l273 -354h-291l-90 145l-90 -145h-299z" />
<glyph unicode="&#xd5;" horiz-adv-x="1849" d="M80 800.5q0 354.5 237.5 590t608.5 235.5q373 0 608 -234.5t235 -590.5q0 -358 -232 -593t-611 -235q-371 0 -608.5 236.5t-237.5 591zM438 801q0 -219 134.5 -368.5t353.5 -149.5q223 0 354 148.5t131 369.5q0 219 -131 365.5t-354 146.5q-219 0 -353.5 -147.5 t-134.5 -364.5zM569 1683q0 94 52.5 171t140.5 77q53 0 163.5 -43t133.5 -43q29 0 45 28t18 58h178q0 -117 -49 -179t-143 -62q-43 0 -150.5 41t-140.5 41q-18 0 -27.5 -4.5t-19.5 -24t-16 -60.5h-185z" />
<glyph unicode="&#xd6;" horiz-adv-x="1849" d="M80 800.5q0 354.5 237.5 590t608.5 235.5q373 0 608 -234.5t235 -590.5q0 -358 -232 -593t-611 -235q-371 0 -608.5 236.5t-237.5 591zM438 801q0 -219 134.5 -368.5t353.5 -149.5q223 0 354 148.5t131 369.5q0 219 -131 365.5t-354 146.5q-219 0 -353.5 -147.5 t-134.5 -364.5zM571 1710v291h285v-291h-285zM987 1710v291h285v-291h-285z" />
<glyph unicode="&#xd7;" horiz-adv-x="1124" d="M57 281l301 301l-299 299l211 211l299 -299l299 299l211 -211l-299 -299l301 -301l-211 -211l-301 301l-301 -301z" />
<glyph unicode="&#xd8;" horiz-adv-x="1851" d="M80 801q0 354 237.5 589.5t608.5 235.5q285 0 493 -141l205 231l102 -98l-196 -221q239 -234 239 -596q0 -358 -232 -593t-611 -235q-297 0 -516 158l-183 -205l-98 94l176 201q-225 231 -225 580zM438 801q0 -184 97 -322l665 756q-117 78 -274 78q-219 0 -353.5 -147.5 t-134.5 -364.5zM629 379q129 -96 297 -96q223 0 354 148.5t131 369.5q0 201 -108 338z" />
<glyph unicode="&#xd9;" horiz-adv-x="1771" d="M231 625v958h361v-930q0 -186 70.5 -271t232.5 -85q158 0 221.5 84t63.5 272v930h360v-958q0 -133 -36 -246t-109.5 -205t-202.5 -144.5t-299 -52.5q-334 0 -498 179.5t-164 468.5zM272 2079h322l258 -375h-322z" />
<glyph unicode="&#xda;" horiz-adv-x="1771" d="M240 616v959h360v-930q0 -186 70.5 -271t232.5 -85q158 0 221.5 84t63.5 272v930h360v-959q0 -133 -35.5 -245.5t-109.5 -204.5t-203 -144.5t-299 -52.5q-334 0 -497.5 179.5t-163.5 467.5zM387 1683l258 375h328l-258 -375h-328z" />
<glyph unicode="&#xdb;" horiz-adv-x="1771" d="M231 625v958h361v-930q0 -186 70.5 -271t232.5 -85q158 0 221.5 84t63.5 272v930h360v-958q0 -133 -36 -246t-109.5 -205t-202.5 -144.5t-299 -52.5q-334 0 -498 179.5t-164 468.5zM432 1737l281 354h217l272 -354h-291l-90 145l-90 -145h-299z" />
<glyph unicode="&#xdc;" horiz-adv-x="1771" d="M231 625v958h361v-930q0 -186 70.5 -271t232.5 -85q158 0 221.5 84t63.5 272v930h360v-958q0 -133 -36 -246t-109.5 -205t-202.5 -144.5t-299 -52.5q-334 0 -498 179.5t-164 468.5zM528 1710v291h285v-291h-285zM944 1710v291h285v-291h-285z" />
<glyph unicode="&#xdd;" horiz-adv-x="1327" d="M-45 1620h379l328 -539l327 539h379l-524 -879v-741h-363v743zM387 1683l258 375h328l-258 -375h-328z" />
<glyph unicode="&#xde;" horiz-adv-x="1392" d="M252 0v1610h362v-267h170q291 0 435.5 -122.5t144.5 -335.5q0 -227 -157.5 -367.5t-399.5 -140.5h-193v-377h-362zM614 684h148q143 0 192.5 43t49.5 156q0 88 -50.5 128t-193.5 40h-146v-367z" />
<glyph unicode="&#xdf;" horiz-adv-x="1273" d="M131 0v1182q0 225 138.5 331.5t367.5 106.5t360 -90t131 -258q0 -264 -245 -328q133 -41 240.5 -173t107.5 -325q0 -242 -130 -356.5t-356 -114.5q-115 0 -188 37v262q43 -24 159 -24h9q74 0 118 51t44 160q0 162 -78 240.5t-262 123.5v207h63q203 0 203 187q0 55 -50 92 t-108 37q-74 0 -130 -46.5t-56 -162.5v-1139h-338z" />
<glyph unicode="&#xe0;" horiz-adv-x="1187" d="M74 266q0 209 262 307q76 29 172 37q55 5 97 5q32 0 57 -3l57 -6v33q0 131 -227 131q-139 0 -259 -74l-98 209q63 35 181 58.5t223 23.5q260 0 388 -78t128 -258v-651h-338v76q-141 -94 -322 -94q-147 0 -234 76.5t-87 207.5zM215 1444h322l258 -375h-322zM397 305 q0 -98 113 -98q123 0 205 49v182q-317 0 -318 -133z" />
<glyph unicode="&#xe1;" horiz-adv-x="1187" d="M74 266q0 209 262 307q76 29 172 37q55 5 97 5q32 0 57 -3l57 -6v33q0 131 -227 131q-139 0 -259 -74l-98 209q63 35 181 58.5t223 23.5q260 0 388 -78t128 -258v-651h-338v76q-141 -94 -322 -94q-147 0 -234 76.5t-87 207.5zM387 1069l258 375h328l-258 -375h-328z M397 305q0 -98 113 -98q123 0 205 49v182q-317 0 -318 -133z" />
<glyph unicode="&#xe2;" horiz-adv-x="1187" d="M74 266q0 209 262 307q76 29 172 37q55 5 97 5q32 0 57 -3l57 -6v33q0 131 -227 131q-139 0 -259 -74l-98 209q63 35 181 58.5t223 23.5q260 0 388 -78t128 -258v-651h-338v76q-141 -94 -322 -94q-147 0 -234 76.5t-87 207.5zM205 1069l280 354h217l273 -354h-291 l-90 145l-90 -145h-299zM397 305q0 -98 113 -98q123 0 205 49v182q-317 0 -318 -133z" />
<glyph unicode="&#xe3;" horiz-adv-x="1187" d="M74 266q0 209 262 307q76 29 172 37q55 5 97 5q32 0 57 -3l57 -6v33q0 131 -227 131q-139 0 -259 -74l-98 209q63 35 181 58.5t223 23.5q260 0 388 -78t128 -258v-651h-338v76q-141 -94 -322 -94q-147 0 -234 76.5t-87 207.5zM240 1069q0 94 52 171t140 77q53 0 164 -43 t133 -43q29 0 45.5 27.5t18.5 58.5h178q0 -117 -49.5 -179.5t-143.5 -62.5q-43 0 -150.5 41t-140.5 41q-18 0 -27 -4t-19.5 -23.5t-16.5 -60.5h-184zM397 305q0 -98 113 -98q123 0 205 49v182q-317 0 -318 -133z" />
<glyph unicode="&#xe4;" horiz-adv-x="1187" d="M74 266q0 209 262 307q76 29 172 37q55 5 97 5q32 0 57 -3l57 -6v33q0 131 -227 131q-139 0 -259 -74l-98 209q63 35 181 58.5t223 23.5q260 0 388 -78t128 -258v-651h-338v76q-141 -94 -322 -94q-147 0 -234 76.5t-87 207.5zM250 1069v291h285v-291h-285zM397 305 q0 -98 113 -98q123 0 205 49v182q-317 0 -318 -133zM666 1069v291h284v-291h-284z" />
<glyph unicode="&#xe5;" horiz-adv-x="1187" d="M74 266q0 209 262 307q76 29 172 37q55 5 97 5q32 0 57 -3l57 -6v33q0 131 -227 131q-139 0 -259 -74l-98 209q63 35 181 58.5t223 23.5q260 0 388 -78t128 -258v-651h-338v76q-141 -94 -322 -94q-147 0 -234 76.5t-87 207.5zM356 1315q0 102 70 175t168 73 q100 0 171 -72t71 -172q0 -104 -69 -177t-169 -73t-171 70.5t-71 175.5zM397 305q0 -98 113 -98q123 0 205 49v182q-317 0 -318 -133zM475 1317q0 -53 42 -88t79 -35q47 0 84 37t37 84t-33 85t-88 38q-51 0 -86 -35t-35 -86z" />
<glyph unicode="&#xe6;" horiz-adv-x="1826" d="M74 287q0 96 52 166.5t137 107.5t160 55.5t152 24.5q23 2 72 5t72 5q0 29 -6 44.5t-11.5 19.5t-23.5 12q-49 23 -146 27h-13q-107 0 -275 -58l-99 209q219 82 394 82q49 0 88 -2t66.5 -3t54.5 -7l42 -9q15 -3 37.5 -13.5t29.5 -14.5l33 -18q25 -15 34 -19q137 94 315 94 q229 0 367.5 -158.5t138.5 -416.5h-709q6 -102 89 -156.5t184 -54.5q166 0 282 115l144 -189q-109 -90 -213.5 -128t-266.5 -38q-125 0 -236.5 42t-176.5 114l-40 -27l-43 -30q-9 -7 -40 -26t-45.5 -25.5t-44 -18.5t-53 -16.5t-55.5 -8.5t-64 -4q-383 0 -383 318zM397 315 q0 -79 100 -79h3h2q80 0 213 71v117q-2 18 -2 53q-63 -10 -142 -24q-174 -33 -174 -138zM1038 600h359q-16 70 -67.5 123t-119 53t-115.5 -50t-57 -126z" />
<glyph unicode="&#xe7;" horiz-adv-x="1040" d="M72 477q0 223 140 370.5t384 147.5q240 0 393 -153l-221 -224q-63 94 -162 95q-104 0 -162.5 -58.5t-58.5 -160.5q0 -119 59.5 -183.5t155.5 -64.5q57 0 104.5 29.5t67.5 78.5l250 -174q-123 -180 -356 -207q47 -12 93 -59t46 -121q0 -63 -33 -107t-82 -60.5t-79.5 -22.5 t-53.5 -6q-139 0 -252 57l33 90q86 -31 168 -31q43 0 81 15.5t38 52.5q0 69 -64 69h-2q-43 0 -61.5 -8t-63.5 -47l-69 76l114 106q-186 33 -296.5 167.5t-110.5 332.5z" />
<glyph unicode="&#xe8;" horiz-adv-x="1146" d="M41 477q0 231 147.5 374.5t378.5 143.5q229 0 367.5 -158.5t138.5 -416.5h-708q8 -74 53 -123t98 -67.5t113 -18.5q92 0 158.5 23.5t132.5 91.5l145 -193q-129 -98 -227.5 -131t-253.5 -33q-238 0 -390.5 135.5t-152.5 372.5zM190 1444h322l258 -375h-321zM367 600h358 q-16 72 -67.5 124t-125.5 52q-68 0 -112.5 -50t-52.5 -126z" />
<glyph unicode="&#xe9;" horiz-adv-x="1146" d="M41 477q0 231 147.5 374.5t378.5 143.5q229 0 367.5 -158.5t138.5 -416.5h-708q8 -74 53 -123t98 -67.5t113 -18.5q92 0 158.5 23.5t132.5 91.5l145 -193q-129 -98 -227.5 -131t-253.5 -33q-238 0 -390.5 135.5t-152.5 372.5zM367 600h358q-16 72 -67.5 124t-125.5 52 q-68 0 -112.5 -50t-52.5 -126zM387 1069l258 375h328l-258 -375h-328z" />
<glyph unicode="&#xea;" horiz-adv-x="1146" d="M41 477q0 231 147.5 374.5t378.5 143.5q229 0 367.5 -158.5t138.5 -416.5h-708q8 -74 53 -123t98 -67.5t113 -18.5q92 0 158.5 23.5t132.5 91.5l145 -193q-129 -98 -227.5 -131t-253.5 -33q-238 0 -390.5 135.5t-152.5 372.5zM205 1069l280 354h217l273 -354h-291 l-90 145l-90 -145h-299zM367 600h358q-16 72 -67.5 124t-125.5 52q-68 0 -112.5 -50t-52.5 -126z" />
<glyph unicode="&#xeb;" horiz-adv-x="1146" d="M41 477q0 231 147.5 374.5t378.5 143.5q229 0 367.5 -158.5t138.5 -416.5h-708q8 -74 53 -123t98 -67.5t113 -18.5q92 0 158.5 23.5t132.5 91.5l145 -193q-129 -98 -227.5 -131t-253.5 -33q-238 0 -390.5 135.5t-152.5 372.5zM229 1069v291h285v-291h-285zM367 600h358 q-16 72 -67.5 124t-125.5 52q-68 0 -112.5 -50t-52.5 -126zM645 1069v291h285v-291h-285z" />
<glyph unicode="&#xec;" horiz-adv-x="600" d="M-96 1444h321l258 -375h-321zM131 0v961h340v-961h-340z" />
<glyph unicode="&#xed;" horiz-adv-x="600" d="M-66 1423h299l91 -145l90 145h291l-273 -354h-217zM131 0v961h340v-961h-340z" />
<glyph unicode="&#xee;" horiz-adv-x="600" d="M-90 1069l280 354h218l272 -354h-291l-90 145l-90 -145h-299zM131 0v961h340v-961h-340z" />
<glyph unicode="&#xef;" horiz-adv-x="600" d="M-43 1069v291h285v-291h-285zM131 0v961h340v-961h-340zM373 1069v291h284v-291h-284z" />
<glyph unicode="&#xf0;" horiz-adv-x="1230" d="M43 580q0 244 154.5 393t404.5 149q135 0 201 -45q-47 76 -135 170l-254 -78l-52 166l164 49q-70 63 -106 91l205 229q117 -96 223 -221l272 84l51 -164l-206 -64q57 -76 103 -150.5t65 -111.5l18 -37q84 -172 84 -428q0 -100 -33 -204.5t-99.5 -204t-186 -161.5 t-273.5 -62q-293 0 -446.5 163.5t-153.5 436.5zM383 578q0 -119 73.5 -192t190.5 -73q96 0 178 69.5t82 192.5q0 115 -82 181.5t-172 66.5q-106 0 -188 -65.5t-82 -179.5z" />
<glyph unicode="&#xf1;" horiz-adv-x="1220" d="M131 0v961h340v-76q35 39 110.5 68.5t149.5 29.5q162 0 261.5 -89t99.5 -269v-625h-340v549q0 170 -134 170q-147 0 -147 -168v-551h-340zM262 1069q0 94 52.5 171t140.5 77q53 0 163.5 -43t133.5 -43q29 0 45 27.5t18 58.5h178q0 -117 -49 -179.5t-143 -62.5 q-43 0 -150.5 41t-140.5 41q-18 0 -27.5 -4t-19.5 -23.5t-17 -60.5h-184z" />
<glyph unicode="&#xf2;" horiz-adv-x="1107" d="M41 479q0 213 144.5 360.5t369.5 147.5q227 0 370.5 -147.5t143.5 -360.5t-143.5 -360.5t-370.5 -147.5q-225 0 -369.5 147.5t-144.5 360.5zM150 1444h321l258 -375h-321zM365 479q0 -94 51 -159.5t139 -65.5t139 65.5t51 159.5t-51 160t-139 66t-139 -66t-51 -160z" />
<glyph unicode="&#xf3;" horiz-adv-x="1107" d="M41 479q0 213 144.5 360.5t369.5 147.5q227 0 370.5 -147.5t143.5 -360.5t-143.5 -360.5t-370.5 -147.5q-225 0 -369.5 147.5t-144.5 360.5zM365 479q0 -94 51 -159.5t139 -65.5t139 65.5t51 159.5t-51 160t-139 66t-139 -66t-51 -160zM387 1069l258 375h328l-258 -375 h-328z" />
<glyph unicode="&#xf4;" horiz-adv-x="1107" d="M41 479q0 213 144.5 360.5t369.5 147.5q227 0 370.5 -147.5t143.5 -360.5t-143.5 -360.5t-370.5 -147.5q-225 0 -369.5 147.5t-144.5 360.5zM164 1069l280 354h218l272 -354h-291l-90 145l-90 -145h-299zM365 479q0 -94 51 -159.5t139 -65.5t139 65.5t51 159.5t-51 160 t-139 66t-139 -66t-51 -160z" />
<glyph unicode="&#xf5;" horiz-adv-x="1107" d="M41 479q0 213 144.5 360.5t369.5 147.5q227 0 370.5 -147.5t143.5 -360.5t-143.5 -360.5t-370.5 -147.5q-225 0 -369.5 147.5t-144.5 360.5zM221 1069q0 94 52.5 171t140.5 77q53 0 163.5 -43t133.5 -43q29 0 45 27.5t18 58.5h178q0 -117 -49 -179.5t-143 -62.5 q-43 0 -150.5 41t-140.5 41q-18 0 -27.5 -4t-19.5 -23.5t-16 -60.5h-185zM365 479q0 -94 51 -159.5t139 -65.5t139 65.5t51 159.5t-51 160t-139 66t-139 -66t-51 -160z" />
<glyph unicode="&#xf6;" horiz-adv-x="1107" d="M41 479q0 213 144.5 360.5t369.5 147.5q227 0 370.5 -147.5t143.5 -360.5t-143.5 -360.5t-370.5 -147.5q-225 0 -369.5 147.5t-144.5 360.5zM209 1069v291h285v-291h-285zM365 479q0 -94 51 -159.5t139 -65.5t139 65.5t51 159.5t-51 160t-139 66t-139 -66t-51 -160z M625 1069v291h284v-291h-284z" />
<glyph unicode="&#xf7;" horiz-adv-x="1126" d="M174 406v112h776v-112h-776zM444 166q0 47 34 81t81 34t80 -33t33 -82t-34 -82t-85 -33q-45 0 -77 34t-32 81zM444 760q0 47 34 80.5t81 33.5t80 -32.5t33 -81.5t-34 -82t-85 -33q-45 0 -77 34t-32 81z" />
<glyph unicode="&#xf8;" horiz-adv-x="1150" d="M41 479q0 211 153.5 359.5t380.5 148.5q156 0 285 -74l121 138l104 -95l-114 -131q139 -143 139 -346q0 -211 -152.5 -359.5t-382.5 -148.5q-160 0 -288 78l-133 -151l-105 100l125 141q-133 143 -133 340zM365 479q0 -51 22 -100l272 307q-41 18 -84 19q-90 0 -150 -67 t-60 -159zM485 274q45 -20 90 -20q90 0 150.5 66.5t60.5 158.5q0 55 -26 109z" />
<glyph unicode="&#xf9;" horiz-adv-x="1222" d="M131 365v596h340v-506q0 -106 25.5 -160.5t107.5 -54.5q80 0 114 55t34 180v486h340v-961h-326v82q-31 -37 -112 -71t-142 -34t-119.5 16.5t-121 54.5t-101.5 120t-39 197zM190 1444h322l258 -375h-321z" />
<glyph unicode="&#xfa;" horiz-adv-x="1222" d="M131 365v596h340v-506q0 -106 25.5 -160.5t107.5 -54.5q80 0 114 55t34 180v486h340v-961h-326v82q-31 -37 -112 -71t-142 -34t-119.5 16.5t-121 54.5t-101.5 120t-39 197zM225 1423h299l90 -145l91 145h290l-272 -354h-217z" />
<glyph unicode="&#xfb;" horiz-adv-x="1222" d="M131 365v596h340v-506q0 -106 25.5 -160.5t107.5 -54.5q80 0 114 55t34 180v486h340v-961h-326v82q-31 -37 -112 -71t-142 -34t-119.5 16.5t-121 54.5t-101.5 120t-39 197zM213 1069l281 354h217l272 -354h-291l-90 145l-90 -145h-299z" />
<glyph unicode="&#xfc;" horiz-adv-x="1222" d="M131 365v596h340v-506q0 -106 25.5 -160.5t107.5 -54.5q80 0 114 55t34 180v486h340v-961h-326v82q-31 -37 -112 -71t-142 -34t-119.5 16.5t-121 54.5t-101.5 120t-39 197zM250 1069v291h285v-291h-285zM666 1069v291h284v-291h-284z" />
<glyph unicode="&#xfd;" horiz-adv-x="1005" d="M35 961h346l143 -570l148 570h332l-338 -1065q-96 -307 -330 -308q-88 0 -250 41l70 267q70 -37 123 -37q77 0 77 61q0 22 -10 51zM387 1069l258 375h328l-258 -375h-328z" />
<glyph unicode="&#xfe;" horiz-adv-x="1230" d="M131 -465v2079h334v-729q96 104 262 104q125 0 220 -48t145.5 -126t74 -155.5t23.5 -155.5q0 -152 -43 -261.5t-114.5 -163.5t-144.5 -78t-155 -24q-176 0 -262 103v-545h-340zM459 469q0 -102 50 -163.5t142 -61.5q90 0 139.5 69.5t49.5 173.5q0 102 -51.5 167 t-141.5 65q-92 0 -140 -68.5t-48 -181.5z" />
<glyph unicode="&#xff;" horiz-adv-x="1005" d="M35 961h346l143 -570l148 570h332l-338 -1065q-96 -307 -330 -308q-88 0 -250 41l70 267q70 -37 123 -37q77 0 77 61q0 22 -10 51zM172 1069v291h285v-291h-285zM588 1069v291h284v-291h-284z" />
<glyph unicode="&#x152;" horiz-adv-x="2523" d="M80 799q0 352 237.5 589.5t587.5 237.5q279 0 490 -153v137h938v-293h-578v-350h512v-291h-512v-369h627v-307h-987v123q-205 -150 -490 -150q-346 0 -585.5 238t-239.5 588zM438 801q0 -219 134.5 -368.5t353.5 -149.5q223 0 354 148.5t131 369.5q0 219 -131 365.5 t-354 146.5q-219 0 -353.5 -147.5t-134.5 -364.5z" />
<glyph unicode="&#x153;" horiz-adv-x="1869" d="M41 479q0 213 144.5 360.5t369.5 147.5q137 0 213 -38t141 -115q130 161 372 161h3q229 0 367.5 -158.5t138.5 -416.5h-709q8 -74 53.5 -123t98.5 -67.5t113 -18.5q92 0 158.5 23.5t131.5 91.5l146 -193q-129 -98 -227.5 -131t-254.5 -33q-260 0 -397 154 q-125 -152 -348 -152q-225 0 -369.5 147.5t-144.5 360.5zM365 479q0 -94 51 -159.5t139 -65.5t139 65.5t51 159.5t-51 160t-139 66t-139 -66t-51 -160zM1083 600h359q-16 72 -67.5 124t-125.5 52q-68 0 -112.5 -50t-53.5 -126z" />
<glyph unicode="&#x178;" horiz-adv-x="1327" d="M-45 1620h379l328 -539l327 539h379l-524 -879v-741h-363v743zM313 1710v291h285v-291h-285zM729 1710v291h285v-291h-285z" />
<glyph unicode="&#x2c6;" d="M432 1737l281 354h217l272 -354h-291l-90 145l-90 -145h-299z" />
<glyph unicode="&#x2dc;" d="M569 1716q0 94 52.5 171t140.5 77q53 0 163.5 -43t133.5 -43q29 0 45 27.5t18 58.5h178q0 -117 -49 -179.5t-143 -62.5q-43 0 -150.5 41t-140.5 41q-18 0 -27.5 -4t-19.5 -23.5t-16 -60.5h-185z" />
<glyph unicode="&#x2000;" horiz-adv-x="1101" />
<glyph unicode="&#x2001;" horiz-adv-x="2202" />
<glyph unicode="&#x2002;" horiz-adv-x="1101" />
<glyph unicode="&#x2003;" horiz-adv-x="2202" />
<glyph unicode="&#x2004;" horiz-adv-x="734" />
<glyph unicode="&#x2005;" horiz-adv-x="550" />
<glyph unicode="&#x2006;" horiz-adv-x="367" />
<glyph unicode="&#x2007;" horiz-adv-x="367" />
<glyph unicode="&#x2008;" horiz-adv-x="275" />
<glyph unicode="&#x2009;" horiz-adv-x="440" />
<glyph unicode="&#x200a;" horiz-adv-x="122" />
<glyph unicode="&#x2010;" horiz-adv-x="641" d="M41 436v293h565v-293h-565z" />
<glyph unicode="&#x2011;" horiz-adv-x="641" d="M41 436v293h565v-293h-565z" />
<glyph unicode="&#x2012;" horiz-adv-x="641" d="M41 436v293h565v-293h-565z" />
<glyph unicode="&#x2013;" d="M0 438v234h1018v-234h-1018z" />
<glyph unicode="&#x2014;" horiz-adv-x="2048" d="M0 438v234h2042v-234h-2042z" />
<glyph unicode="&#x2018;" horiz-adv-x="512" d="M41 971v137q0 201 59 328q43 90 144 186l186 -129q-84 -100 -84 -233v-289h-305z" />
<glyph unicode="&#x2019;" horiz-adv-x="512" d="M55 1094q84 100 84 233v289h305v-137q0 -201 -59 -328q-43 -90 -143 -186z" />
<glyph unicode="&#x201a;" horiz-adv-x="477" d="M35 -238q84 100 84 234v289h305v-138q0 -201 -59 -327q-43 -90 -144 -187z" />
<glyph unicode="&#x201c;" horiz-adv-x="921" d="M41 971v137q0 201 59 328q43 90 144 186l186 -129q-84 -100 -84 -233v-289h-305zM514 971v137q0 201 59 328q43 90 144 186l186 -129q-84 -100 -84 -233v-289h-305z" />
<glyph unicode="&#x201d;" horiz-adv-x="921" d="M55 1094q84 100 84 233v289h305v-137q0 -201 -59 -328q-43 -90 -143 -186zM506 1094q84 100 84 233v289h305v-137q0 -201 -59 -328q-43 -90 -144 -186z" />
<glyph unicode="&#x201e;" horiz-adv-x="921" d="M35 -238q84 100 84 234v289h305v-138q0 -201 -59 -327q-43 -90 -144 -187zM504 -238q41 41 74 99q40 74 40 179q0 54 -10 116l-20 129h325v-138q0 -84 -18 -177t-39 -140q-43 -90 -166 -197z" />
<glyph unicode="&#x2022;" d="M180 647l355 406l346 -418l-344 -406z" />
<glyph unicode="&#x2026;" horiz-adv-x="2048" d="M297 0v240h219v-240h-219zM932 0v240h219v-240h-219zM1526 0v240h219v-240h-219z" />
<glyph unicode="&#x202f;" horiz-adv-x="440" />
<glyph unicode="&#x2039;" horiz-adv-x="518" d="M61 367v256l394 233v-262l-193 -109l195 -90v-266z" />
<glyph unicode="&#x203a;" horiz-adv-x="518" d="M61 588v266l396 -238v-256l-394 -233v262l193 109z" />
<glyph unicode="&#x205f;" horiz-adv-x="550" />
<glyph unicode="&#x2122;" horiz-adv-x="1720" d="M14 1432v176h625v-176h-211v-629h-203v629h-211zM715 803v805h192l248 -338l234 338h194v-805h-197v463l-184 -238h-102l-191 240v-465h-194z" />
<glyph unicode="&#xe000;" horiz-adv-x="960" d="M0 960h960v-960h-960v960z" />
<glyph unicode="&#xfb01;" horiz-adv-x="1318" d="M51 709v252h121v329q0 164 89 240t235 76h145v-297q-78 0 -101.5 -30t-23.5 -93v-225h672v-961h-340v705h-336v-705h-340v709h-121zM848 1126v312h340v-312h-340z" />
<glyph unicode="&#xfb02;" horiz-adv-x="1323" d="M51 709v252h121v329q0 164 89 240t235 76h145v-297q-78 0 -101.5 -30t-23.5 -93v-225h125v-256h-129v-705h-340v709h-121zM852 0v1614h340v-1614h-340z" />
<glyph unicode="&#xfb03;" horiz-adv-x="2032" d="M51 709v252h121v329q0 164 89 240t235 76h145v-297q-78 0 -101.5 -30t-23.5 -93v-225h125v-256h-129v-705h-340v709h-121zM767 709v252h121v329q0 164 89 240t235 76h145v-297q-78 0 -101.5 -30t-23.5 -93v-225h125v-256h-129v-705h-340v709h-121zM1563 0v961h340v-961 h-340zM1563 1126v312h340v-312h-340z" />
<glyph unicode="&#xfb04;" horiz-adv-x="2032" d="M51 709v252h121v329q0 164 89 240t235 76h145v-297q-78 0 -101.5 -30t-23.5 -93v-225h125v-256h-129v-705h-340v709h-121zM767 709v252h121v329q0 164 89 240t235 76h145v-297q-78 0 -101.5 -30t-23.5 -93v-225h125v-256h-129v-705h-340v709h-121zM1563 0v1614h340v-1614 h-340z" />
</font>
</defs>
</svg>
